<svg width="26" height="26" viewBox="0 0 26 26" fill="none" xmlns="http://www.w3.org/2000/svg">
<g clip-path="url(#clip0)">
<path d="M12.2347 16.8579V6.81535C12.2347 6.39462 11.8937 6.05363 11.473 6.05363C11.0525 6.05363 10.7113 6.39462 10.7113 6.81535V16.8579C9.37231 17.1983 8.37891 18.4139 8.37891 19.8576C8.37891 21.5639 9.76686 22.9521 11.473 22.9521C13.1791 22.9521 14.5673 21.5639 14.5673 19.8576C14.5673 18.4139 13.5737 17.1983 12.2347 16.8579ZM11.473 21.4286C10.6069 21.4286 9.90234 20.7239 9.90234 19.8576C9.90234 18.9911 10.6069 18.2864 11.473 18.2864C12.3392 18.2864 13.0438 18.9911 13.0438 19.8576C13.0438 20.7239 12.3392 21.4286 11.473 21.4286Z" fill="#94A3BE"/>
<path d="M15.2534 15.0169V3.78038C15.2534 1.69557 13.5576 -0.000442505 11.473 -0.000442505C9.38858 -0.000442505 7.69276 1.69557 7.69276 3.78038V15.0169C6.20741 16.1779 5.33203 17.9583 5.33203 19.8574C5.33203 23.2443 8.08691 25.9996 11.473 25.9996C14.8593 25.9996 17.6142 23.2443 17.6142 19.8574C17.6142 17.9583 16.7388 16.1779 15.2534 15.0169ZM11.473 24.4761C8.92679 24.4761 6.85547 22.4042 6.85547 19.8574C6.85547 18.3254 7.61322 16.896 8.88255 16.0337C9.09123 15.8919 9.2162 15.6559 9.2162 15.4035V3.78038C9.2162 2.53564 10.2287 1.52299 11.473 1.52299C12.7175 1.52299 13.73 2.53564 13.73 3.78038V15.4035C13.73 15.6559 13.8549 15.8919 14.0636 16.0337C15.333 16.896 16.0907 18.3254 16.0907 19.8574C16.0907 22.4042 14.0192 24.4761 11.473 24.4761Z" fill="#94A3BE"/>
<path d="M19.8993 12.1611H17.5386C17.1178 12.1611 16.7769 12.5021 16.7769 12.9228C16.7769 13.3435 17.1178 13.6845 17.5386 13.6845H19.8993C20.3198 13.6845 20.661 13.3435 20.661 12.9228C20.661 12.5021 20.3198 12.1611 19.8993 12.1611Z" fill="#94A3BE"/>
<path d="M19.8993 9.1136H17.5386C17.1178 9.1136 16.7769 9.45459 16.7769 9.87532C16.7769 10.2961 17.1178 10.637 17.5386 10.637H19.8993C20.3198 10.637 20.661 10.2961 20.661 9.87532C20.661 9.45459 20.3198 9.1136 19.8993 9.1136Z" fill="#94A3BE"/>
<path d="M19.8993 6.06613H17.5386C17.1178 6.06613 16.7769 6.40712 16.7769 6.82785C16.7769 7.24858 17.1178 7.58957 17.5386 7.58957H19.8993C20.3198 7.58957 20.661 7.24858 20.661 6.82785C20.661 6.40712 20.3198 6.06613 19.8993 6.06613Z" fill="#94A3BE"/>
<path d="M17.5386 4.5421H19.8993C20.3198 4.5421 20.661 4.20111 20.661 3.78038C20.661 3.35985 20.3198 3.01866 19.8993 3.01866H17.5386C17.1178 3.01866 16.7769 3.35985 16.7769 3.78038C16.7769 4.20111 17.1178 4.5421 17.5386 4.5421Z" fill="#94A3BE"/>
</g>
<defs>
<clipPath id="clip0">
<rect width="26" height="26" fill="white" transform="translate(0 -0.000442505)"/>
</clipPath>
</defs>
</svg>
