<svg width="26" height="26" viewBox="0 0 26 26" fill="none" xmlns="http://www.w3.org/2000/svg">
<path d="M19.4288 2.68549C19.4288 1.61346 18.8332 0.649699 17.8744 0.170335L17.5337 0L16.4003 0.566664L15.267 0L14.1337 0.566664L13.0003 0L11.8669 0.566664L10.7335 0L9.60022 0.566664L8.46684 0L8.12617 0.170335C7.16734 0.649749 6.57173 1.61351 6.57173 2.68549V11.0409C6.57173 12.5399 7.05216 14.0072 7.931 15.2154C6.2177 15.4436 4.89139 16.9134 4.89139 18.6881V19.3824C3.65491 20.3582 2.85986 21.8696 2.85986 23.5633V26H23.1408V23.5633C23.1408 21.8696 22.3457 20.3582 21.1093 19.3824V18.6881C21.1093 16.9134 19.783 15.4437 18.0697 15.2154C18.9485 14.0072 19.4289 12.5399 19.4289 11.0409V2.68549H19.4288ZM19.5795 18.5397C19.0276 18.3455 18.4345 18.2395 17.817 18.2395H15.9947V17.1155C16.2032 16.9899 16.4052 16.8535 16.5999 16.7072H17.6047C18.647 16.7072 19.5033 17.5166 19.5795 18.5397ZM8.94534 19.7631H10.0449C10.2756 21.1865 11.5128 22.277 13.0003 22.277C14.4878 22.277 15.725 21.1865 15.9556 19.7631H17.0552V24.4764H8.94534V19.7631ZM9.35167 14.5644C9.17149 14.3438 9.01035 14.1098 8.86708 13.8661C9.64572 13.7673 10.406 13.5637 11.138 13.2569L12.0261 12.8847C12.6452 12.6252 13.3554 12.6253 13.9745 12.8847L14.8626 13.2569C15.5945 13.5637 16.3548 13.7673 17.1335 13.8661C16.9902 14.1098 16.8291 14.3438 16.6489 14.5644C15.8387 15.556 14.7014 16.2426 13.4466 16.4979L13.0003 16.5887L12.554 16.4979C11.2991 16.2427 10.1619 15.556 9.35167 14.5644ZM12.2503 17.9909L13.0003 18.1434L13.7503 17.9909C13.9944 17.9412 14.235 17.8786 14.4712 17.8039V19.2826C14.4712 20.0936 13.8114 20.7534 13.0004 20.7534C12.1894 20.7534 11.5296 20.0936 11.5296 19.2826V17.8039C11.7656 17.8786 12.0062 17.9412 12.2503 17.9909ZM8.09524 2.68549C8.09524 2.31333 8.25186 1.96966 8.51889 1.7294L9.60022 2.27006L10.7335 1.7034L11.8669 2.27006L13.0003 1.7034L14.1336 2.27006L15.267 1.7034L16.4003 2.27006L17.4816 1.7294C17.7486 1.96966 17.9053 2.31333 17.9053 2.68549V4.95402C17.1518 4.31306 16.1762 3.92592 15.1119 3.92592H10.8887C9.82433 3.92592 8.84875 4.31306 8.09529 4.95402V2.68549H8.09524ZM10.8887 5.44954H15.1119C16.6522 5.44954 17.9053 6.70267 17.9053 8.24294V11.0409C17.9053 11.4995 17.8471 11.9541 17.7364 12.3947C16.9503 12.3404 16.1837 12.1587 15.4515 11.8518L14.5634 11.4796C13.57 11.0632 12.4305 11.0632 11.4372 11.4796L10.549 11.8518C9.81687 12.1587 9.05031 12.3404 8.26415 12.3947C8.15344 11.9541 8.09529 11.4995 8.09529 11.0409V8.24299C8.09524 6.70267 9.34837 5.44954 10.8887 5.44954ZM8.39589 16.7072H9.40058C9.59534 16.8535 9.79732 16.9899 10.0058 17.1155V18.2395H8.18351C7.566 18.2395 6.97293 18.3455 6.42099 18.5397C6.49722 17.5166 7.35352 16.7072 8.39589 16.7072ZM4.38338 23.5632C4.38338 21.7287 5.69019 20.1936 7.42177 19.8399V24.4764H4.38338V23.5632ZM21.6172 24.4764H18.5788V19.8399C20.3104 20.1936 21.6172 21.7286 21.6172 23.5632V24.4764Z" fill="#94A3BE"/>
<path d="M9.69922 8.96271H11.2228V10.4864H9.69922V8.96271Z" fill="#94A3BE"/>
<path d="M14.7778 8.96271H16.3014V10.4864H14.7778V8.96271Z" fill="#94A3BE"/>
</svg>
