<svg width="26" height="26" viewBox="0 0 26 26" fill="none" xmlns="http://www.w3.org/2000/svg">
<g clip-path="url(#clip0)">
<path d="M25.7192 8.55388C25.4871 8.27972 25.1463 8.1225 24.7843 8.1225H1.21562C0.853908 8.1225 0.513422 8.27971 0.281354 8.55358C0.0647732 8.80926 -0.0330815 9.14187 0.0099299 9.4721L1.40133 23.9926C1.40254 24.0038 1.40376 24.015 1.40529 24.0259C1.52767 24.942 2.30563 25.6327 3.21507 25.6327H22.785C23.7411 25.6327 24.5384 24.9005 24.5987 23.9926L25.9901 9.47241C26.033 9.14223 25.9355 8.80956 25.7192 8.55388ZM22.7898 23.8169C22.7888 23.8154 22.7843 23.8145 22.7849 23.8151L3.23111 23.8178C3.22324 23.8142 3.21171 23.8006 3.20811 23.79L1.88054 9.94045H24.1194L22.7898 23.8169Z" fill="#94A3BE"/>
<path d="M23.7034 4.63173C23.4731 4.36666 23.1384 4.21457 22.7845 4.21457H3.24498C2.89145 4.21457 2.55518 4.3724 2.32224 4.64748C2.08809 4.92438 1.98689 5.28488 2.04386 5.62506L2.58915 9.16947L4.38588 8.89317L3.94571 6.03222H22.0842L21.6444 8.89317L23.4408 9.16947L23.9873 5.61475C24.0381 5.25675 23.9348 4.89833 23.7034 4.63173Z" fill="#94A3BE"/>
<path d="M21.0081 0.785023C20.7779 0.519642 20.4428 0.367249 20.0884 0.367249H5.94113C5.58759 0.367249 5.25132 0.525075 5.01839 0.800155C4.78394 1.07706 4.68303 1.43756 4.74032 1.78017L5.2856 5.264L7.08141 4.98287L6.64338 2.1849H19.3799L18.9191 4.97526L20.7125 5.27151L21.2911 1.7689C21.3426 1.41029 21.2393 1.05193 21.0081 0.785023Z" fill="#94A3BE"/>
<path d="M16.8168 13.8481H9.18275C8.68078 13.8481 8.27393 14.2549 8.27393 14.7569C8.27393 15.2589 8.68078 15.6657 9.18275 15.6657H16.8168C17.3188 15.6657 17.7256 15.2589 17.7256 14.7569C17.7256 14.2549 17.3188 13.8481 16.8168 13.8481Z" fill="#94A3BE"/>
</g>
<defs>
<clipPath id="clip0">
<rect width="26" height="26" fill="white"/>
</clipPath>
</defs>
</svg>
