<svg width="26" height="26" viewBox="0 0 26 26" fill="none" xmlns="http://www.w3.org/2000/svg">
<g clip-path="url(#clip0)">
<path d="M25.5194 13.8966C24.7495 12.8881 23.3365 12.6743 22.3027 13.4101L17.8937 16.6543C17.9197 16.5103 17.934 16.3624 17.934 16.211C17.934 14.8351 16.8145 13.7157 15.4386 13.7157H11.3575C10.848 13.1346 9.61848 12.0256 7.65431 12.0256C5.57345 12.0256 4.34403 13.2163 3.90812 13.7335L0 14.9701V16.569L4.8487 15.0348L4.99738 14.8118C5.00581 14.7992 5.85929 13.5501 7.65431 13.5501C9.39616 13.5501 10.2955 14.8133 10.3542 14.8986L10.5719 15.2401H15.4386C15.974 15.2401 16.4096 15.6757 16.4096 16.2111C16.4096 16.7455 15.9756 17.1803 15.4416 17.1819H11.3456V18.7063H17.6772L23.1908 14.6493C23.5507 14.3962 24.0404 14.4716 24.3077 14.8218C24.5692 15.1643 24.5192 15.6497 24.1949 15.9318L17.1141 21.5374C16.517 22.0073 15.7718 22.222 15.0163 22.1425L4.86997 21.0728L0 22.516V24.106L5.01206 22.6207L14.8565 23.6585C16.0093 23.7802 17.1458 23.4523 18.0586 22.7341L25.1527 17.1178L25.1724 17.1017C26.1237 16.2955 26.276 14.8876 25.5194 13.8966Z" fill="#94A3BE"/>
<path d="M18.0809 12.4732C20.9978 12.4732 23.3709 10.1 23.3709 7.18317C23.3709 4.2663 20.9978 1.89319 18.0809 1.89319C15.164 1.89319 12.7909 4.26625 12.7909 7.18317C12.7909 10.1001 15.164 12.4732 18.0809 12.4732ZM18.0809 3.41759C20.1573 3.41759 21.8465 5.10683 21.8465 7.18317C21.8465 9.25952 20.1573 10.9488 18.0809 10.9488C16.0046 10.9488 14.3153 9.25952 14.3153 7.18317C14.3153 5.10683 16.0046 3.41759 18.0809 3.41759Z" fill="#94A3BE"/>
<path d="M17.3187 9.51636H18.8431V7.94534H20.4141V6.42094H18.8431V4.84998H17.3187V6.42094H15.7478V7.94534H17.3187V9.51636Z" fill="#94A3BE"/>
</g>
<defs>
<clipPath id="clip0">
<rect width="26" height="26" fill="white" transform="translate(0 -0.000427246)"/>
</clipPath>
</defs>
</svg>
