<svg width="26" height="26" viewBox="0 0 26 26" fill="none" xmlns="http://www.w3.org/2000/svg">
<g clip-path="url(#clip0)">
<path d="M21.7598 2.72856H16.4178C16.0683 1.16886 14.6685 -0.000427246 13 -0.000427246C11.3315 -0.000427246 9.93175 1.16886 9.58217 2.72856H4.24023C2.63016 2.72856 1.32031 4.0345 1.32031 5.63974V23.0884C1.32031 24.6936 2.63016 25.9996 4.24023 25.9996H19.2594C19.4609 25.9996 19.6542 25.9197 19.797 25.7776L24.4555 21.1379C24.599 20.995 24.6797 20.8007 24.6797 20.5982V5.63974C24.6797 4.0345 23.3698 2.72856 21.7598 2.72856ZM13 1.52301C14.0909 1.52301 14.9784 2.40554 14.9784 3.49028C14.9784 4.57506 14.0909 5.45759 13 5.45759C11.9091 5.45759 11.0216 4.57506 11.0216 3.49028C11.0216 2.40554 11.9091 1.52301 13 1.52301ZM2.84375 23.0884V5.63974C2.84375 4.87457 3.47019 4.25199 4.24023 4.25199H9.58217C9.93175 5.81174 11.3315 6.98103 13 6.98103C14.6685 6.98103 16.0683 5.81174 16.4178 4.25199H21.7598C22.5298 4.25199 23.1562 4.87457 23.1562 5.63974V19.8364H19.2594C18.8387 19.8364 18.4977 20.1775 18.4977 20.5981V24.4761H4.24023C3.47019 24.4761 2.84375 23.8536 2.84375 23.0884ZM22.0737 21.3599L20.0211 23.4042V21.3599H22.0737Z" fill="#94A3BE"/>
<path d="M6.19324 10.0258H19.8067C20.2274 10.0258 20.5685 9.68471 20.5685 9.26404C20.5685 8.84337 20.2274 8.50232 19.8067 8.50232H6.19324C5.77257 8.50232 5.43152 8.84337 5.43152 9.26404C5.43152 9.68471 5.77257 10.0258 6.19324 10.0258Z" fill="#94A3BE"/>
<path d="M6.19324 13.0726H18.2833C18.704 13.0726 19.045 12.7316 19.045 12.3109C19.045 11.8902 18.704 11.5492 18.2833 11.5492H6.19324C5.77257 11.5492 5.43152 11.8902 5.43152 12.3109C5.43152 12.7316 5.77257 13.0726 6.19324 13.0726Z" fill="#94A3BE"/>
<path d="M6.19324 16.1195H19.8067C20.2274 16.1195 20.5685 15.7785 20.5685 15.3578C20.5685 14.9371 20.2274 14.5961 19.8067 14.5961H6.19324C5.77257 14.5961 5.43152 14.9371 5.43152 15.3578C5.43152 15.7785 5.77257 16.1195 6.19324 16.1195Z" fill="#94A3BE"/>
<path d="M15.2365 17.643H6.19324C5.77257 17.643 5.43152 17.984 5.43152 18.4047C5.43152 18.8254 5.77257 19.1664 6.19324 19.1664H15.2364C15.6571 19.1664 15.9981 18.8254 15.9981 18.4047C15.9981 17.984 15.6571 17.643 15.2365 17.643Z" fill="#94A3BE"/>
</g>
<defs>
<clipPath id="clip0">
<rect width="26" height="26" fill="white" transform="translate(0 -0.000427246)"/>
</clipPath>
</defs>
</svg>
