<svg width="26" height="26" viewBox="0 0 26 26" fill="none" xmlns="http://www.w3.org/2000/svg">
<g clip-path="url(#clip0)">
<path d="M13.0098 23.8333C9.59183 23.8333 6.83475 22.3004 4.8165 19.2768C4.80025 19.253 4.33008 18.4882 4.13725 18.0906C3.54683 16.8361 3.25 15.5188 3.25 14.1646V9.50409C3.25 4.46334 8.30917 2.16667 13.0098 2.16667C17.7006 2.16667 22.75 4.46551 22.75 9.51384V14.1754C22.75 15.5253 22.4532 16.8458 21.8693 18.0982C21.6461 18.5521 21.1662 19.3028 21.112 19.3863C19.0797 22.3448 16.3594 23.8333 13.0098 23.8333ZM13.0098 3.79167C10.1963 3.79167 4.875 4.98659 4.875 9.50409V14.1646C4.875 15.2772 5.11983 16.3627 5.603 17.3897C5.76767 17.7288 6.18042 18.395 6.18367 18.4004C7.891 20.9549 10.1281 22.2094 13.0098 22.2094C15.8308 22.2094 18.0386 20.9928 19.7578 18.4882C19.877 18.3018 20.254 17.6984 20.4024 17.3973C20.8791 16.3757 21.125 15.2869 21.125 14.1754V9.51384C21.125 4.98767 15.8167 3.79167 13.0098 3.79167Z" fill="#94A3BE"/>
<path d="M21.7122 16.9054C21.3829 16.9054 21.072 16.7028 20.9506 16.3767L19.5001 12.4767C13.6186 12.4031 10.8626 11.1724 9.57239 10.0631C8.8043 11.3999 7.32339 12.0802 6.60189 12.3446L5.0473 16.3843C4.88589 16.8036 4.41572 17.0127 3.99647 16.8512C3.57722 16.6898 3.36922 16.2197 3.52955 15.8004L5.2228 11.3999C5.31597 11.1572 5.52072 10.9731 5.77205 10.907C5.79589 10.9005 8.4338 10.1573 8.4338 8.20624C8.4338 7.77833 8.7653 7.42408 9.19105 7.39591C9.62547 7.36991 9.9938 7.67433 10.0512 8.09683C10.0545 8.09683 10.8431 10.8528 20.0656 10.8528C20.4046 10.8528 20.7091 11.0641 20.8271 11.3815L22.4738 15.808C22.6298 16.2294 22.4164 16.6963 21.995 16.8534C21.9018 16.8902 21.8054 16.9054 21.7122 16.9054Z" fill="#94A3BE"/>
<path d="M25.4584 14.0833H0.541748C0.093248 14.0833 -0.270752 13.7193 -0.270752 13.2708C-0.270752 12.8223 0.093248 12.4583 0.541748 12.4583H25.4584C25.9069 12.4583 26.2709 12.8223 26.2709 13.2708C26.2709 13.7193 25.9069 14.0833 25.4584 14.0833Z" fill="#94A3BE"/>
<path d="M0.8125 7.04167C0.364 7.04167 0 6.67767 0 6.22917V2.97917C0 1.33575 1.33575 0 2.97917 0H6.22917C6.67767 0 7.04167 0.364 7.04167 0.8125C7.04167 1.261 6.67767 1.625 6.22917 1.625H2.97917C2.23275 1.625 1.625 2.23275 1.625 2.97917V6.22917C1.625 6.67767 1.261 7.04167 0.8125 7.04167Z" fill="#94A3BE"/>
<path d="M6.22917 26H2.97917C1.33575 26 0 24.6643 0 23.0208V19.7708C0 19.3223 0.364 18.9583 0.8125 18.9583C1.261 18.9583 1.625 19.3223 1.625 19.7708V23.0208C1.625 23.7673 2.23275 24.375 2.97917 24.375H6.22917C6.67767 24.375 7.04167 24.739 7.04167 25.1875C7.04167 25.636 6.67767 26 6.22917 26Z" fill="#94A3BE"/>
<path d="M25.1875 7.04167C24.739 7.04167 24.375 6.67767 24.375 6.22917V2.97917C24.375 2.23275 23.7673 1.625 23.0209 1.625H19.7709C19.3224 1.625 18.9584 1.261 18.9584 0.812501C18.9584 0.364 19.3224 0 19.7709 0H23.0209C24.6643 0 26 1.33575 26 2.97917V6.22917C26 6.67767 25.636 7.04167 25.1875 7.04167Z" fill="#94A3BE"/>
<path d="M23.0209 26H19.7709C19.3224 26 18.9584 25.636 18.9584 25.1875C18.9584 24.739 19.3224 24.375 19.7709 24.375H23.0209C23.7673 24.375 24.375 23.7673 24.375 23.0208V19.7708C24.375 19.3223 24.739 18.9583 25.1875 18.9583C25.636 18.9583 26 19.3223 26 19.7708V23.0208C26 24.6643 24.6643 26 23.0209 26Z" fill="#94A3BE"/>
</g>
<defs>
<clipPath id="clip0">
<rect width="26" height="26" fill="white"/>
</clipPath>
</defs>
</svg>
