<svg width="27" height="28" viewBox="0 0 27 28" fill="none" xmlns="http://www.w3.org/2000/svg">
<path d="M15.1684 25.6097H11.8554C11.5938 25.6097 11.3823 25.8214 11.3823 26.0828C11.3823 26.3441 11.5938 26.5561 11.8554 26.5561H15.1684C15.43 26.5561 15.6415 26.3441 15.6415 26.0828C15.6415 25.8214 15.43 25.6097 15.1684 25.6097Z" fill="#94A3BE" stroke="#94A3BE"/>
<path d="M13.1063 23.7119C13.1448 23.7143 13.1829 23.7157 13.2214 23.7157C13.8543 23.7157 14.5112 23.3956 15.1774 22.7627C15.367 22.5829 15.3746 22.2831 15.1945 22.0936C15.0152 21.9048 14.7157 21.8967 14.5259 22.0765C14.0165 22.5596 13.5469 22.7917 13.1651 22.7671C12.8274 22.7462 12.4856 22.5282 12.1498 22.1193C11.9846 21.9173 11.6868 21.8878 11.4837 22.0538C11.2816 22.2195 11.2527 22.5176 11.4187 22.7197C11.9278 23.3403 12.4954 23.6742 13.1063 23.7119Z" fill="#94A3BE" stroke="#94A3BE"/>
<path d="M20.8905 15.0769C19.1124 13.9565 17.1884 13.823 15.1712 14.6804C14.9307 14.7828 14.8186 15.0609 14.921 15.3011C15.0231 15.5418 15.302 15.6537 15.5416 15.5516C17.281 14.812 18.8652 14.9192 20.3858 15.8776C20.4643 15.9269 20.5512 15.9505 20.6376 15.9505C20.7947 15.9505 20.9488 15.8725 21.0384 15.7295C21.1779 15.5085 21.1112 15.216 20.8905 15.0769Z" fill="#94A3BE" stroke="#94A3BE"/>
<path d="M11.5652 15.7294C11.7049 15.5085 11.6383 15.216 11.4173 15.0765C9.63899 13.956 7.7144 13.823 5.69801 14.6804C5.45781 14.7827 5.34542 15.0606 5.44806 15.3013C5.54961 15.5418 5.82853 15.6533 6.06874 15.5515C7.80647 14.812 9.39121 14.9184 10.9126 15.8776C10.9914 15.9269 11.078 15.9504 11.1647 15.9504C11.3218 15.9504 11.4756 15.8724 11.5652 15.7294Z" fill="#94A3BE" stroke="#94A3BE"/>
<path d="M7.38534 9.78315C7.47796 9.87549 7.599 9.9218 7.72005 9.9218C7.8411 9.9218 7.96215 9.87549 8.05477 9.78315C9.62975 8.20816 11.2088 7.9314 11.2334 7.92734C11.2857 7.91895 11.332 7.89728 11.3767 7.87399C12.5384 9.0861 14.5467 10.3483 17.9959 10.7794C18.0157 10.7819 18.0357 10.7832 18.055 10.7832C18.2903 10.7832 18.4942 10.608 18.5243 10.3686C18.5565 10.1092 18.3726 9.87279 18.1132 9.84029C11.6876 9.03709 10.8031 5.21769 10.7671 5.04763C10.7151 4.7928 10.4703 4.62816 10.2106 4.67853C9.95444 4.72971 9.78817 4.97912 9.83935 5.23529C9.85506 5.31302 10.0278 6.10674 10.7159 7.0781C10.0831 7.25575 8.73394 7.76513 7.38534 9.114C7.20065 9.29895 7.20065 9.59846 7.38534 9.78315Z" fill="#94A3BE" stroke="#94A3BE"/>
<path d="M25.1067 22.8984C24.8451 22.8984 24.6333 23.1104 24.6333 23.3718V26.0535H21.8235C21.5619 26.0535 21.3501 26.2653 21.3501 26.5266C21.3501 26.7882 21.5619 27 21.8235 27H25.1067C25.3683 27 25.5798 26.7882 25.5798 26.5266V23.3718C25.5798 23.1104 25.3683 22.8984 25.1067 22.8984Z" fill="#94A3BE" stroke="#94A3BE"/>
<path d="M4.62794 26.0535H1.94645V23.1148C1.94645 22.8535 1.73496 22.6414 1.47336 22.6414C1.21177 22.6414 1 22.8535 1 23.1148V26.5266C1 26.7882 1.21177 27 1.47336 27H4.62794C4.88953 27 5.1013 26.7882 5.1013 26.5266C5.1013 26.2653 4.88953 26.0535 4.62794 26.0535Z" fill="#94A3BE" stroke="#94A3BE"/>
<path d="M25.1843 10.4719L22.7322 10.063C22.5204 5.02981 18.3595 1 13.2752 1C8.19034 1 4.02947 5.02981 3.81824 10.0635L1.39456 10.4716C1.16681 10.5103 1 10.7072 1 10.9385V14.0933C1 14.3546 1.2115 14.5667 1.47309 14.5667C1.73469 14.5667 1.94645 14.3546 1.94645 14.0933V11.3387L4.36174 10.932C4.58949 10.8935 4.7563 10.6961 4.7563 10.4651C4.7563 5.76775 8.57813 1.94646 13.2752 1.94646C17.972 1.94646 21.7938 5.76775 21.7938 10.4651C21.7938 10.6964 21.9612 10.894 22.1895 10.932L24.6335 11.3392V14.3503C24.6335 14.6116 24.845 14.8234 25.1066 14.8234C25.3682 14.8234 25.5799 14.6116 25.5799 14.3503V10.9382C25.5799 10.7072 25.4128 10.5095 25.1843 10.4719Z" fill="#94A3BE" stroke="#94A3BE"/>
<path d="M17.7715 16.1443C16.8581 16.1443 16.115 16.8874 16.115 17.8008C16.115 18.714 16.8581 19.457 17.7715 19.457C18.6846 19.457 19.4277 18.714 19.4277 17.8008C19.4277 16.8874 18.6846 16.1443 17.7715 16.1443ZM17.7715 18.5106C17.3799 18.5106 17.0614 18.1921 17.0614 17.8008C17.0614 17.4092 17.3799 17.0908 17.7715 17.0908C18.1628 17.0908 18.4813 17.4092 18.4813 17.8008C18.4813 18.1921 18.1628 18.5106 17.7715 18.5106Z" fill="#94A3BE" stroke="#94A3BE"/>
<path d="M8.54969 16.3228C7.63627 16.3228 6.89319 17.0658 6.89319 17.9792C6.89319 18.8924 7.63627 19.6355 8.54969 19.6355C9.46284 19.6355 10.2059 18.8924 10.2059 17.9792C10.2059 17.0658 9.46284 16.3228 8.54969 16.3228ZM8.54969 18.689C8.15811 18.689 7.83965 18.3706 7.83965 17.9792C7.83965 17.5877 8.15811 17.2692 8.54969 17.2692C8.941 17.2692 9.25947 17.5877 9.25947 17.9792C9.25947 18.3706 8.941 18.689 8.54969 18.689Z" fill="#94A3BE" stroke="#94A3BE"/>
</svg>
