<svg width="26" height="26" viewBox="0 0 26 26" fill="none" xmlns="http://www.w3.org/2000/svg">
<path d="M0.761719 8.125H5.83984C6.26052 8.125 6.60156 7.78395 6.60156 7.36328V6.34766C6.60156 5.38027 6.10705 4.52644 5.35773 4.02502C5.66059 3.60694 5.83984 3.0937 5.83984 2.53906C5.83984 1.13902 4.70082 0 3.30078 0C1.90074 0 0.761719 1.13902 0.761719 2.53906C0.761719 3.0937 0.940977 3.60694 1.24384 4.02502C0.494508 4.52644 0 5.38027 0 6.34766V7.36328C0 7.78395 0.341047 8.125 0.761719 8.125ZM5.07812 6.60156H1.52344V6.34766C1.52344 5.64764 2.09295 5.07812 2.79297 5.07812H3.80859C4.50861 5.07812 5.07812 5.64764 5.07812 6.34766V6.60156ZM3.30078 1.52344C3.8608 1.52344 4.31641 1.97905 4.31641 2.53906C4.31641 3.09908 3.8608 3.55469 3.30078 3.55469C2.74077 3.55469 2.28516 3.09908 2.28516 2.53906C2.28516 1.97905 2.74077 1.52344 3.30078 1.52344Z" fill="#94A3BE"/>
<path d="M15.0569 12.9625C15.3599 12.5444 15.5391 12.0311 15.5391 11.4765C15.5391 10.0765 14.4 8.93744 13 8.93744C11.6 8.93744 10.4609 10.0765 10.4609 11.4765C10.4609 12.0311 10.6402 12.5444 10.9431 12.9625C10.1937 13.4639 9.69922 14.3177 9.69922 15.2851V16.3007C9.69922 16.7214 10.0403 17.0624 10.4609 17.0624H15.5391C15.9597 17.0624 16.3008 16.7214 16.3008 16.3007V15.2851C16.3008 14.3177 15.8063 13.4639 15.0569 12.9625ZM13 10.4609C13.56 10.4609 14.0156 10.9165 14.0156 11.4765C14.0156 12.0365 13.56 12.4921 13 12.4921C12.44 12.4921 11.9844 12.0365 11.9844 11.4765C11.9844 10.9165 12.44 10.4609 13 10.4609ZM14.7773 15.539H11.2227V15.2851C11.2227 14.5851 11.7922 14.0156 12.4922 14.0156H13.5078C14.2078 14.0156 14.7773 14.5851 14.7773 15.2851V15.539Z" fill="#94A3BE"/>
<path d="M24.7562 4.02502C25.059 3.60694 25.2383 3.0937 25.2383 2.53906C25.2383 1.13902 24.0993 0 22.6992 0C21.2992 0 20.1602 1.13902 20.1602 2.53906C20.1602 3.0937 20.3394 3.60694 20.6423 4.02502C19.8929 4.52644 19.3984 5.38027 19.3984 6.34766V7.36328C19.3984 7.78395 19.7395 8.125 20.1602 8.125H25.2383C25.659 8.125 26 7.78395 26 7.36328V6.34766C26 5.38027 25.5055 4.52644 24.7562 4.02502ZM22.6992 1.52344C23.2592 1.52344 23.7148 1.97905 23.7148 2.53906C23.7148 3.09908 23.2592 3.55469 22.6992 3.55469C22.1392 3.55469 21.6836 3.09908 21.6836 2.53906C21.6836 1.97905 22.1392 1.52344 22.6992 1.52344ZM24.4766 6.60156H20.9219V6.34766C20.9219 5.64764 21.4914 5.07812 22.1914 5.07812H23.207C23.9071 5.07812 24.4766 5.64764 24.4766 6.34766V6.60156Z" fill="#94A3BE"/>
<path d="M24.7562 21.9C25.059 21.4819 25.2383 20.9687 25.2383 20.4141C25.2383 19.014 24.0993 17.875 22.6992 17.875C21.2992 17.875 20.1602 19.014 20.1602 20.4141C20.1602 20.9687 20.3394 21.4819 20.6423 21.9C19.8929 22.4014 19.3984 23.2553 19.3984 24.2227V25.2383C19.3984 25.659 19.7395 26 20.1602 26H25.2383C25.659 26 26 25.659 26 25.2383V24.2227C26 23.2553 25.5055 22.4014 24.7562 21.9ZM22.6992 19.3984C23.2592 19.3984 23.7148 19.854 23.7148 20.4141C23.7148 20.9741 23.2592 21.4297 22.6992 21.4297C22.1392 21.4297 21.6836 20.9741 21.6836 20.4141C21.6836 19.854 22.1392 19.3984 22.6992 19.3984ZM24.4766 24.4766H20.9219V24.2227C20.9219 23.5226 21.4914 22.9531 22.1914 22.9531H23.207C23.9071 22.9531 24.4766 23.5226 24.4766 24.2227V24.4766Z" fill="#94A3BE"/>
<path d="M13 5.89053C9.07987 5.89053 5.89061 9.0798 5.89061 12.9999C5.89061 14.1279 6.15513 15.1951 6.62465 16.1436L0.669278 22.0989C-0.221628 22.9898 -0.221628 24.4396 0.669278 25.3306C1.10087 25.7621 1.67465 25.9999 2.28488 26H2.28519C2.89548 26 3.46915 25.7624 3.90069 25.3308L9.85632 19.3752C10.8047 19.8448 11.8719 20.1092 12.9999 20.1092C16.92 20.1092 20.1093 16.92 20.1093 12.9999C20.1093 9.07975 16.9201 5.89053 13 5.89053ZM2.82352 24.2536C2.67971 24.3974 2.48857 24.4766 2.28524 24.4766C2.28524 24.4766 2.28519 24.4766 2.28514 24.4766C2.08171 24.4766 1.89042 24.3973 1.74655 24.2533C1.44953 23.9563 1.44953 23.4731 1.74655 23.1761L7.46574 17.4569C7.78546 17.8532 8.14677 18.2144 8.54296 18.5341L2.82352 24.2536ZM13 18.5858C9.9199 18.5858 7.41404 16.08 7.41404 12.9999C7.41404 9.91982 9.9199 7.41397 13 7.41397C16.0801 7.41397 18.5859 9.91982 18.5859 12.9999C18.5859 16.08 16.0801 18.5858 13 18.5858Z" fill="#94A3BE"/>
</svg>
