<svg width="26" height="26" viewBox="0 0 26 26" fill="none" xmlns="http://www.w3.org/2000/svg">
<path d="M22.1315 21.8181H21.2376V10.5693C21.2376 6.877 18.7958 3.74436 15.4423 2.70126V2.44222C15.4423 1.09555 14.3468 0 13.0001 0C11.6534 0 10.5579 1.09555 10.5579 2.44222V2.70126C7.20432 3.74436 4.7625 6.877 4.7625 10.5693V21.8181H3.86865C3.44798 21.8181 3.10693 22.1592 3.10693 22.5798V25.2383C3.10693 25.659 3.44798 26 3.86865 26H22.1316C22.5522 26 22.8933 25.659 22.8933 25.2383V22.5798C22.8932 22.1592 22.5522 21.8181 22.1315 21.8181ZM13.0001 1.52344C13.4867 1.52344 13.885 1.90394 13.9159 2.38286C13.6151 2.34945 13.3096 2.33167 13.0001 2.33167C12.6905 2.33167 12.3851 2.34945 12.0843 2.38286C12.1151 1.90394 12.5135 1.52344 13.0001 1.52344ZM6.28594 10.5693C6.28594 6.86705 9.29788 3.85511 13.0001 3.85511C16.7023 3.85511 19.7142 6.86705 19.7142 10.5693V21.8181H6.28594V10.5693ZM21.3698 24.4766H4.63037V23.3416H21.3699L21.3698 24.4766Z" fill="#94A3BE"/>
<path d="M16.9567 10.5545H9.04357C7.7518 10.5545 6.70093 11.6055 6.70093 12.8972C6.70093 14.4258 7.94456 15.6694 9.47318 15.6694C10.9009 15.6694 12.0319 15.1786 12.6578 14.2873C12.7325 14.1808 12.8489 14.1172 12.9691 14.1172H13.0312C13.1514 14.1172 13.2678 14.1808 13.3425 14.2873C13.9684 15.1786 15.0993 15.6694 16.5271 15.6694C18.0557 15.6694 19.2994 14.4258 19.2994 12.8972C19.2994 11.6055 18.2484 10.5545 16.9567 10.5545ZM16.5271 14.146C15.6232 14.146 14.9169 13.8784 14.5893 13.4119C14.2297 12.8997 13.6472 12.5939 13.0312 12.5939H12.9691C12.3531 12.5939 11.7706 12.8997 11.411 13.4118C11.0834 13.8784 10.3771 14.146 9.47318 14.146C8.78459 14.146 8.22437 13.5858 8.22437 12.8972C8.22437 12.4454 8.59187 12.078 9.04357 12.078H16.9567C17.4084 12.078 17.7759 12.4455 17.7759 12.8972C17.7759 13.5858 17.2157 14.146 16.5271 14.146Z" fill="#94A3BE"/>
<path d="M14.3623 16.2847H11.638C10.4279 16.2847 9.44336 17.2693 9.44336 18.4794C9.44336 19.6895 10.4279 20.6741 11.638 20.6741H14.3623C15.5724 20.6741 16.5569 19.6895 16.5569 18.4794C16.5569 17.2693 15.5724 16.2847 14.3623 16.2847ZM14.3623 19.1506H11.638C11.2679 19.1506 10.9668 18.8494 10.9668 18.4793C10.9668 18.1092 11.2679 17.8081 11.638 17.8081H14.3623C14.7324 17.8081 15.0335 18.1092 15.0335 18.4793C15.0335 18.8494 14.7324 19.1506 14.3623 19.1506Z" fill="#94A3BE"/>
</svg>
