<svg width="26" height="26" viewBox="0 0 26 26" fill="none" xmlns="http://www.w3.org/2000/svg">
<g clip-path="url(#clip0)">
<path d="M21.9306 19.7184C21.8008 16.3173 20.7348 11.4381 17.579 10.1095C21.0138 6.1978 18.2344 0 13 0C7.75894 0 4.99123 6.19841 8.41831 10.1064C5.26483 11.4349 4.20871 16.2988 4.07013 19.7172C3.63286 20.4498 3.65647 21.059 3.65647 21.5517C3.65647 22.2368 3.8277 22.5409 4.41665 24.1113C5.15733 26.0867 7.68769 26.58 9.17057 25.2698C11.6025 26.2417 14.3956 26.2425 16.8294 25.2698C18.3156 26.5829 20.8442 26.0825 21.5833 24.1113C22.1789 22.5232 22.3435 22.2262 22.3435 21.5517C22.3435 21.0585 22.3716 20.458 21.9306 19.7184ZM11.3466 1.94213C11.1305 2.39057 10.9688 2.85708 10.9688 3.24992C10.9688 4.08012 11.6921 5.28112 13 5.28112C14.3079 5.28112 15.0312 4.08012 15.0312 3.24992C15.0312 2.80117 14.6674 2.43744 14.2187 2.43744C13.7726 2.43744 13.4105 2.79696 13.4063 3.24205C13.3985 3.29455 13.2815 3.65616 13 3.65616C12.7209 3.65616 12.6031 3.29872 12.5938 3.24261C12.601 2.99632 12.9615 2.29713 13.4054 1.64354C15.6801 1.84905 17.4686 3.7662 17.4686 6.0936C17.4686 8.55759 15.464 10.5622 13 10.5622C10.536 10.5622 8.53135 8.55759 8.53135 6.0936C8.53135 4.21337 9.69873 2.6008 11.3466 1.94213ZM9.98975 11.3901C11.8305 12.4404 14.124 12.4657 16.0089 11.3909C18.8295 11.5761 19.8684 15.5954 20.1978 18.39C19.9746 18.3275 19.7409 18.2907 19.4998 18.2832V17.8745C19.4998 17.4258 19.136 17.0621 18.6873 17.0621H18.103L17.4444 14.4276C17.3355 13.9923 16.8943 13.7274 16.4591 13.8364C16.0238 13.9452 15.7591 14.3863 15.8679 14.8217L16.428 17.0621H9.57198L10.1321 14.8217C10.2409 14.3864 9.97624 13.9452 9.54091 13.8364C9.10552 13.7279 8.66439 13.9923 8.55562 14.4276L7.89701 17.0621H7.31268C6.86394 17.0621 6.5002 17.4258 6.5002 17.8745V18.2832C6.259 18.2907 6.02516 18.3275 5.80188 18.3901C6.13525 15.5996 7.17116 11.5616 9.98975 11.3901ZM7.14105 24.3744C6.60857 24.3744 6.12514 24.0394 5.93822 23.5408C5.21557 21.6138 5.28148 21.938 5.28148 21.218C5.28148 20.4944 5.87018 19.9057 6.59374 19.9057C7.15948 19.9057 7.65976 20.2663 7.83871 20.803C8.5246 22.8609 8.53145 22.8119 8.53145 23.0898C8.53145 23.7981 7.95515 24.3744 7.24682 24.3744H7.14105ZM10.0504 23.8657C10.2056 23.3058 10.1895 22.7173 10.007 22.1697L9.92942 21.9369H14.2187C14.6674 21.9369 15.0312 21.5732 15.0312 21.1245C15.0312 20.6757 14.6674 20.312 14.2187 20.312C9.0163 20.312 9.39197 20.3246 9.38019 20.2892C9.15513 19.6141 8.70289 19.0635 8.12511 18.7107V18.687C18.3901 18.687 17.8749 18.6744 17.8749 18.7106C17.2971 19.0635 16.8448 19.6141 16.6198 20.2891L15.9929 22.1697C15.8111 22.7154 15.7938 23.3037 15.9495 23.8656C14.1291 24.519 12.0087 24.5684 10.0504 23.8657ZM20.0619 23.5408C19.8749 24.0394 19.3915 24.3744 18.859 24.3744H18.7533C17.8789 24.3744 17.2574 23.5148 17.5345 22.6835L18.1614 20.803C18.3403 20.2663 18.8406 19.9057 19.4063 19.9057C20.1299 19.9057 20.7186 20.4944 20.7186 21.218C20.7185 21.9238 20.7971 21.58 20.0619 23.5408Z" fill="#94A3BE"/>
</g>
<defs>
<clipPath id="clip0">
<rect width="26" height="26" fill="white"/>
</clipPath>
</defs>
</svg>
