<svg width="26" height="26" viewBox="0 0 26 26" fill="none" xmlns="http://www.w3.org/2000/svg">
<path d="M23.6641 0H10.7148C9.45483 0 8.42969 1.02515 8.42969 2.28516V6.09375H3.09766C1.83765 6.09375 0.8125 7.1189 0.8125 8.37891V23.7148C0.8125 24.9749 1.83765 26 3.09766 26H17.5703V19.8555H25.1875V3.04688H23.6641V0ZM10.7148 1.52344H22.1406V3.04688H10.7148C10.2949 3.04688 9.95312 2.70509 9.95312 2.28516C9.95312 1.86522 10.2949 1.52344 10.7148 1.52344ZM9.95312 4.43939C10.1916 4.5239 10.4478 4.57031 10.7148 4.57031H11.4766V6.09375H9.95312V4.43939ZM3.09766 7.61719H14.5234V9.14062H3.09766C2.67772 9.14062 2.33594 8.79884 2.33594 8.37891C2.33594 7.95897 2.67772 7.61719 3.09766 7.61719ZM2.33594 23.7148V10.5331C2.57437 10.6176 2.83066 10.6641 3.09766 10.6641H3.85938V24.4766H3.09766C2.67772 24.4766 2.33594 24.1348 2.33594 23.7148ZM16.0469 24.4766H5.38281V10.6641H16.0469V24.4766ZM23.6641 18.332H17.5703V9.14062H16.0469V6.09375H13V4.57031H23.6641V18.332Z" fill="#94A3BE"/>
<path d="M6.90625 12.1875H14.5234V13.7109H6.90625V12.1875Z" fill="#94A3BE"/>
</svg>
