<svg width="512" height="487" viewBox="0 0 512 487" fill="none" xmlns="http://www.w3.org/2000/svg">
<path d="M190.296 15.4253C194.67 15.4253 196.858 13.2217 196.858 8.81448C196.858 4.40724 194.67 0 190.296 0C185.921 0 181.547 4.40724 181.547 8.81448C181.547 13.2217 185.921 15.4253 190.296 15.4253Z" fill="#0E1827"/>
<path d="M220.916 15.4252C225.291 15.4252 229.665 11.018 229.665 6.61074C229.665 2.2035 225.291 -2.20374 220.916 -2.20374C216.541 -0.00011611 212.167 4.40712 212.167 8.81436C212.167 13.2216 216.541 15.4252 220.916 15.4252Z" fill="#0E1827"/>
<path d="M251.539 15.4252C255.913 15.4252 260.288 11.018 260.288 6.61074C260.288 2.2035 255.913 -2.20374 251.539 -2.20374C247.164 -2.20374 242.789 2.2035 242.789 6.61074C244.977 13.2216 247.164 15.4252 251.539 15.4252Z" fill="#0E1827"/>
<path d="M314.971 15.4252C319.345 15.4252 323.72 11.018 323.72 6.61074C323.72 2.2035 319.345 -2.20374 314.971 -2.20374C310.596 -2.20374 306.222 2.2035 306.222 6.61074C308.409 13.2216 310.596 15.4252 314.971 15.4252Z" fill="#0E1827"/>
<path d="M347.78 13.2213C349.967 13.2213 352.155 11.0177 352.155 8.8141C352.155 6.61048 349.967 4.40686 347.78 4.40686C345.593 4.40686 343.406 6.61048 343.406 8.8141C341.218 11.0177 343.406 13.2213 347.78 13.2213Z" fill="#0E1827"/>
<path d="M378.403 8.81422C378.403 8.81422 380.59 8.81422 378.403 8.81422C380.59 6.6106 378.403 6.6106 378.403 6.6106C378.403 6.6106 378.403 6.6106 378.403 8.81422Z" fill="#0E1827"/>
<path d="M94.0538 48.4795C98.4284 48.4795 102.803 44.0723 102.803 39.6651C102.803 35.2578 98.4284 30.8506 94.0538 30.8506C89.6792 30.8506 87.4919 35.2578 87.4919 39.6651C87.4919 44.0723 89.6792 48.4795 94.0538 48.4795Z" fill="#0E1827"/>
<path d="M126.863 41.8684C126.863 41.8684 129.05 41.8684 126.863 41.8684C129.05 39.6648 126.863 37.4612 126.863 37.4612C124.675 37.4612 124.675 39.6648 126.863 41.8684C124.675 41.8684 124.675 41.8684 126.863 41.8684Z" fill="#0E1827"/>
<path d="M157.485 44.0725C159.673 44.0725 161.86 41.8689 161.86 39.6653C161.86 37.4617 159.673 35.2581 157.485 35.2581C155.298 35.2581 153.111 37.4617 153.111 39.6653C153.111 41.8689 155.298 44.0725 157.485 44.0725Z" fill="#0E1827"/>
<path d="M190.294 48.4795C194.668 48.4795 196.856 44.0723 196.856 39.6651C196.856 35.2578 192.481 30.8506 188.107 30.8506C183.732 30.8506 179.357 35.2578 179.357 39.6651C181.545 44.0723 185.919 48.4795 190.294 48.4795Z" fill="#0E1827"/>
<path d="M220.917 41.8684C220.917 41.8684 223.104 39.6648 220.917 41.8684C223.104 39.6648 220.917 39.6648 220.917 41.8684C220.917 39.6648 220.917 39.6648 220.917 41.8684C220.917 39.6648 220.917 41.8684 220.917 41.8684Z" fill="#0E1827"/>
<path d="M251.539 41.8684C253.727 41.8684 253.727 41.8684 251.539 41.8684C253.727 39.6648 251.539 37.4612 251.539 37.4612C251.539 37.4612 251.539 39.6648 251.539 41.8684Z" fill="#0E1827"/>
<path d="M314.972 41.8684C317.159 41.8684 317.159 41.8684 317.159 39.6648C317.159 37.4612 317.159 37.4612 314.972 37.4612C312.784 37.4612 312.784 37.4612 312.784 39.6648C312.784 41.8684 314.972 41.8684 314.972 41.8684Z" fill="#0E1827"/>
<path d="M347.78 46.276C352.154 46.276 354.342 44.0724 354.342 39.6652C354.342 35.2579 352.154 33.0543 347.78 33.0543C343.405 33.0543 341.218 35.2579 341.218 39.6652C341.218 44.0724 343.405 46.276 347.78 46.276Z" fill="#0E1827"/>
<path d="M378.404 41.8687C378.404 41.8687 380.591 39.6651 378.404 41.8687C380.591 39.6651 378.404 39.6651 378.404 39.6651C378.404 37.4615 376.216 39.6651 378.404 41.8687C376.216 39.6651 378.404 41.8687 378.404 41.8687Z" fill="#0E1827"/>
<path d="M32.8105 72.7191C34.9977 70.5155 32.8105 70.5155 32.8105 70.5155C30.6232 70.5155 30.6232 70.5155 32.8105 72.7191C30.6232 72.7191 30.6232 72.7191 32.8105 72.7191Z" fill="#0E1827"/>
<path d="M94.0533 77.1267C96.2406 77.1267 98.4279 74.9231 98.4279 72.7195C100.615 68.3123 98.4279 66.1086 94.0533 66.1086C91.866 66.1086 89.6787 68.3123 89.6787 70.5159C89.6787 74.9231 91.866 77.1267 94.0533 77.1267Z" fill="#0E1827"/>
<path d="M126.863 77.1267C131.238 77.1267 133.425 74.9231 133.425 70.5159C133.425 68.3123 129.051 66.1086 126.863 66.1086C122.489 66.1086 120.301 68.3123 120.301 70.5159C120.301 74.9231 122.489 77.1267 126.863 77.1267Z" fill="#0E1827"/>
<path d="M157.485 77.1267C159.673 77.1267 161.86 74.9231 161.86 72.7195C164.047 68.3123 161.86 66.1086 157.485 66.1086C155.298 66.1086 153.111 68.3123 153.111 70.5159C153.111 74.9231 155.298 77.1267 157.485 77.1267Z" fill="#0E1827"/>
<path d="M190.294 81.5336C196.856 81.5336 201.23 77.1264 201.23 70.5155C201.23 63.9047 196.856 59.4974 190.294 59.4974C183.732 61.7011 179.357 66.1083 179.357 70.5155C179.357 77.1264 183.732 81.5336 190.294 81.5336Z" fill="#0E1827"/>
<path d="M220.917 83.7377C227.479 83.7377 234.041 79.3305 234.041 70.516C234.041 61.7016 229.666 57.2943 220.917 57.2943C214.355 57.2943 207.793 61.7016 207.793 70.516C207.793 79.3305 214.355 83.7377 220.917 83.7377Z" fill="#0E1827"/>
<path d="M251.539 79.33C256.371 79.33 260.288 75.3836 260.288 70.5155C260.288 65.6474 256.371 61.701 251.539 61.701C246.707 61.701 242.789 65.6474 242.789 70.5155C242.789 75.3836 246.707 79.33 251.539 79.33Z" fill="#0E1827"/>
<path d="M284.348 79.33C288.723 79.33 293.097 74.9228 293.097 70.5155C293.097 66.1083 288.723 61.701 284.348 61.701C279.974 61.701 275.599 66.1083 275.599 70.5155C275.599 77.1264 279.974 79.33 284.348 79.33Z" fill="#0E1827"/>
<path d="M314.972 74.9227C317.159 74.9227 317.159 74.9227 317.159 72.7191C317.159 70.5155 317.159 70.5155 314.972 70.5155C312.784 70.5155 312.784 70.5155 312.784 72.7191L314.972 74.9227Z" fill="#0E1827"/>
<path d="M347.781 72.7196C348.989 72.7196 349.969 71.733 349.969 70.516C349.969 69.299 348.989 68.3124 347.781 68.3124C346.573 68.3124 345.594 69.299 345.594 70.516C345.594 71.733 346.573 72.7196 347.781 72.7196Z" fill="#0E1827"/>
<path d="M378.403 81.5336C384.965 81.5336 389.34 77.1264 389.34 70.5155C389.34 63.9047 384.965 59.4974 378.403 59.4974C371.841 59.4974 367.467 63.9047 367.467 70.5155C367.467 77.1264 371.841 81.5336 378.403 81.5336Z" fill="#0E1827"/>
<path d="M409.023 72.7191C411.211 72.7191 411.211 72.7191 409.023 72.7191C411.211 70.5155 409.023 70.5155 409.023 70.5155C409.023 70.5155 409.023 70.5155 409.023 72.7191Z" fill="#0E1827"/>
<path d="M63.4325 105.774C65.6198 105.774 65.6198 105.774 65.6198 103.57C65.6198 101.367 65.6198 101.367 63.4325 101.367C61.2452 101.367 61.2452 103.57 61.2452 103.57C61.2452 105.774 61.2452 105.774 63.4325 105.774Z" fill="#0E1827"/>
<path d="M94.0538 110.181C98.4284 110.181 100.616 107.977 100.616 103.57C100.616 99.1627 98.4284 96.9591 94.0538 96.9591C89.6792 96.9591 87.4919 99.1627 87.4919 103.57C89.6792 105.774 91.8665 110.181 94.0538 110.181Z" fill="#0E1827"/>
<path d="M126.864 112.384C131.238 112.384 135.613 107.977 135.613 103.57C135.613 99.1626 131.238 94.7554 126.864 94.7554C122.489 94.7554 118.115 99.1626 118.115 103.57C118.115 107.977 120.302 112.384 126.864 112.384Z" fill="#0E1827"/>
<path d="M157.486 112.384C161.861 112.384 166.236 107.977 166.236 103.57C166.236 99.1626 161.861 94.7554 157.486 94.7554C153.112 94.7554 148.737 99.1626 148.737 103.57C148.737 107.977 153.112 112.384 157.486 112.384Z" fill="#0E1827"/>
<path d="M190.295 110.181C192.483 110.181 196.857 107.977 196.857 103.57C196.857 99.1627 192.483 96.9591 190.295 96.9591C188.108 96.9591 183.733 99.1627 183.733 103.57C183.733 107.977 185.921 110.181 190.295 110.181Z" fill="#0E1827"/>
<path d="M220.916 114.588C227.478 114.588 231.853 110.181 231.853 103.57C231.853 96.9589 227.478 92.5516 220.916 92.5516C214.355 92.5516 209.98 96.9589 209.98 103.57C209.98 110.181 214.355 114.588 220.916 114.588Z" fill="#0E1827"/>
<path d="M251.539 114.588C258.101 114.588 262.476 110.181 262.476 103.57C262.476 96.9589 258.101 92.5516 251.539 92.5516C244.977 92.5516 240.603 96.9589 240.603 103.57C240.603 110.181 247.165 114.588 251.539 114.588Z" fill="#0E1827"/>
<path d="M284.348 112.384C288.723 112.384 293.097 107.977 293.097 103.57C293.097 99.1626 288.723 94.7554 284.348 94.7554C279.974 94.7554 275.599 99.1626 275.599 103.57C275.599 107.977 279.974 112.384 284.348 112.384Z" fill="#0E1827"/>
<path d="M314.971 114.588C321.533 114.588 325.908 110.181 325.908 103.57C325.908 96.9589 321.533 92.5516 314.971 92.5516C308.409 92.5516 304.035 96.9589 304.035 103.57C306.222 107.977 310.597 114.588 314.971 114.588Z" fill="#0E1827"/>
<path d="M347.779 110.181C352.154 110.181 354.341 107.977 354.341 103.57C354.341 99.1627 352.154 96.9591 347.779 96.9591C343.405 96.9591 341.217 99.1627 341.217 103.57C339.03 107.977 343.405 110.181 347.779 110.181Z" fill="#0E1827"/>
<path d="M378.402 107.977C380.589 107.977 382.776 105.774 382.776 103.57C382.776 101.367 380.589 99.163 378.402 99.163C376.215 99.163 374.027 101.367 374.027 103.57C374.027 105.774 376.215 107.977 378.402 107.977Z" fill="#0E1827"/>
<path d="M441.833 105.774C441.833 105.774 444.02 103.57 441.833 105.774C444.02 103.57 441.833 103.57 441.833 103.57C441.833 101.366 439.646 103.57 441.833 105.774C439.646 103.57 441.833 105.774 441.833 105.774Z" fill="#0E1827"/>
<path d="M32.8105 136.625C34.9977 134.421 32.8105 134.421 32.8105 134.421C30.6232 134.421 30.6232 134.421 32.8105 136.625C30.6232 136.625 30.6232 136.625 32.8105 136.625Z" fill="#0E1827"/>
<path d="M63.4325 138.828C65.6198 138.828 65.6198 136.624 65.6198 134.421C65.6198 132.217 65.6198 132.217 63.4325 132.217C61.2452 132.217 61.2452 132.217 61.2452 134.421C61.2452 136.624 61.2452 138.828 63.4325 138.828Z" fill="#0E1827"/>
<path d="M94.0533 141.031C96.2406 141.031 98.4279 138.828 98.4279 136.624C98.4279 134.42 96.2406 132.217 94.0533 132.217C91.866 130.013 89.6787 132.217 89.6787 134.42C89.6787 138.828 91.866 141.031 94.0533 141.031Z" fill="#0E1827"/>
<path d="M126.862 136.624C129.05 136.624 129.05 134.421 129.05 134.421C129.05 134.421 129.05 132.217 126.862 132.217C124.675 132.217 124.675 134.421 124.675 134.421C124.675 136.624 124.675 136.624 126.862 136.624Z" fill="#0E1827"/>
<path d="M157.485 141.031C159.673 141.031 164.047 138.828 164.047 134.421C164.047 132.217 161.86 127.81 157.485 127.81C155.298 130.013 153.111 132.217 153.111 134.421C153.111 138.828 155.298 141.031 157.485 141.031Z" fill="#0E1827"/>
<path d="M190.294 145.439C196.856 145.439 201.23 141.032 201.23 134.421C201.23 127.81 196.856 123.403 190.294 123.403C183.732 123.403 179.357 127.81 179.357 134.421C179.357 141.032 183.732 145.439 190.294 145.439Z" fill="#0E1827"/>
<path d="M220.916 145.439C227.478 145.439 231.853 141.032 231.853 134.421C231.853 127.81 227.478 123.403 220.916 123.403C214.355 123.403 209.98 127.81 209.98 134.421C209.98 141.032 214.355 145.439 220.916 145.439Z" fill="#0E1827"/>
<path d="M251.539 145.439C258.101 145.439 262.476 141.032 262.476 134.421C262.476 127.81 258.101 123.403 251.539 123.403C244.977 123.403 240.603 127.81 240.603 134.421C242.79 141.032 247.165 145.439 251.539 145.439Z" fill="#0E1827"/>
<path d="M284.348 145.439C288.723 145.439 293.097 141.031 293.097 136.624C293.097 132.217 288.723 127.81 284.348 127.81C279.974 127.81 275.599 132.217 275.599 136.624C275.599 141.031 277.786 145.439 284.348 145.439Z" fill="#0E1827"/>
<path d="M314.971 143.235C319.345 143.235 323.72 138.828 323.72 134.42C323.72 130.013 319.345 125.606 314.971 125.606C310.596 125.606 306.222 130.013 306.222 134.42C306.222 138.828 310.596 143.235 314.971 143.235Z" fill="#0E1827"/>
<path d="M347.779 138.828C349.966 138.828 349.966 136.624 349.966 134.421C349.966 132.217 349.966 132.217 347.779 132.217C345.592 132.217 343.405 134.421 343.405 136.624C343.405 136.624 345.592 138.828 347.779 138.828Z" fill="#0E1827"/>
<path d="M378.403 143.235C383.235 143.235 387.152 139.289 387.152 134.42C387.152 129.552 383.235 125.606 378.403 125.606C373.571 125.606 369.654 129.552 369.654 134.42C369.654 139.289 373.571 143.235 378.403 143.235Z" fill="#0E1827"/>
<path d="M409.024 136.624C411.211 136.624 411.211 136.624 411.211 134.421C411.211 132.217 411.211 132.217 409.024 132.217C406.837 132.217 406.837 132.217 406.837 134.421C406.837 136.624 409.024 136.624 409.024 136.624Z" fill="#0E1827"/>
<path d="M441.833 145.439C448.395 145.439 452.769 141.032 452.769 134.421C452.769 127.81 448.395 123.403 441.833 123.403C435.271 123.403 430.896 127.81 430.896 134.421C430.896 141.032 435.271 145.439 441.833 145.439Z" fill="#0E1827"/>
<path d="M472.456 136.625C474.643 136.625 474.643 136.625 472.456 136.625C474.643 134.421 472.456 134.421 472.456 134.421C472.456 134.421 472.456 134.421 472.456 136.625Z" fill="#0E1827"/>
<path d="M32.8104 169.679C34.9977 169.679 37.185 167.475 37.185 165.271C37.185 163.068 34.9977 163.068 32.8104 163.068C30.6232 163.068 28.4359 165.271 28.4359 167.475C28.4359 169.679 30.6232 169.679 32.8104 169.679Z" fill="#0E1827"/>
<path d="M63.4306 169.679C65.6179 169.679 67.8052 167.475 67.8052 165.271C67.8052 163.068 65.6179 163.068 63.4306 163.068C61.2433 163.068 59.056 165.271 59.056 167.475C59.056 169.679 61.2433 169.679 63.4306 169.679Z" fill="#0E1827"/>
<path d="M94.0538 174.086C98.4284 174.086 102.803 169.679 102.803 165.272C102.803 160.864 98.4284 156.457 94.0538 156.457C89.6792 158.661 87.4919 163.068 87.4919 167.475C87.4919 171.882 89.6792 174.086 94.0538 174.086Z" fill="#0E1827"/>
<path d="M126.863 169.679C129.05 169.679 131.237 167.475 131.237 165.271C131.237 163.068 129.05 163.068 126.863 163.068C124.675 163.068 122.488 165.271 122.488 167.475C122.488 169.679 124.675 169.679 126.863 169.679Z" fill="#0E1827"/>
<path d="M157.485 171.882C159.673 171.882 161.86 169.679 161.86 167.475C161.86 165.271 159.673 160.864 157.485 160.864C155.298 160.864 153.111 163.068 153.111 167.475C153.111 171.882 155.298 171.882 157.485 171.882Z" fill="#0E1827"/>
<path d="M190.295 174.086C192.483 174.086 196.857 169.679 196.857 167.475C196.857 163.068 194.67 160.864 190.295 160.864C185.921 160.864 183.733 163.068 183.733 167.475C183.733 169.679 185.921 174.086 190.295 174.086Z" fill="#0E1827"/>
<path d="M220.916 176.289C225.748 176.289 229.665 172.343 229.665 167.475C229.665 162.607 225.748 158.66 220.916 158.66C216.084 158.66 212.167 162.607 212.167 167.475C212.167 172.343 216.084 176.289 220.916 176.289Z" fill="#0E1827"/>
<path d="M251.539 176.289C255.913 176.289 260.288 171.882 260.288 167.475C260.288 163.068 255.913 158.66 251.539 158.66C247.164 158.66 242.789 163.068 242.789 167.475C242.789 171.882 247.164 176.289 251.539 176.289Z" fill="#0E1827"/>
<path d="M284.348 174.086C288.722 174.086 290.909 171.882 290.909 167.475C290.909 163.068 288.722 160.864 284.348 160.864C279.973 160.864 277.786 163.068 277.786 167.475C277.786 169.679 279.973 174.086 284.348 174.086Z" fill="#0E1827"/>
<path d="M314.97 174.086C319.345 174.086 321.532 171.882 321.532 167.475C321.532 163.068 319.345 160.864 314.97 160.864C310.596 160.864 308.408 163.068 308.408 167.475C308.408 169.679 312.783 174.086 314.97 174.086Z" fill="#0E1827"/>
<path d="M347.779 171.882C350.195 171.882 352.154 169.909 352.154 167.475C352.154 165.041 350.195 163.068 347.779 163.068C345.363 163.068 343.405 165.041 343.405 167.475C343.405 169.909 345.363 171.882 347.779 171.882Z" fill="#0E1827"/>
<path d="M378.402 174.086C382.777 174.086 384.964 171.882 384.964 167.475C384.964 163.068 382.777 160.864 378.402 160.864C374.028 160.864 371.84 163.068 371.84 167.475C371.84 171.882 374.028 174.086 378.402 174.086Z" fill="#0E1827"/>
<path d="M409.025 171.882C411.212 171.882 413.399 169.679 413.399 167.475C413.399 165.271 411.212 163.068 409.025 163.068C406.837 163.068 404.65 165.271 404.65 167.475C404.65 169.679 406.837 171.882 409.025 171.882Z" fill="#0E1827"/>
<path d="M441.834 174.086C446.209 174.086 448.396 171.882 448.396 167.475C448.396 163.068 446.209 160.864 441.834 160.864C437.46 160.864 435.272 163.068 435.272 167.475C435.272 171.882 437.46 174.086 441.834 174.086Z" fill="#0E1827"/>
<path d="M472.457 171.882C474.873 171.882 476.831 169.909 476.831 167.475C476.831 165.041 474.873 163.068 472.457 163.068C470.04 163.068 468.082 165.041 468.082 167.475C468.082 169.909 470.04 171.882 472.457 171.882Z" fill="#0E1827"/>
<path d="M32.8095 207.14C37.1841 207.14 41.5587 202.733 41.5587 198.326C41.5587 193.919 37.1841 189.511 32.8095 189.511C26.2476 189.511 21.873 193.919 21.873 198.326C21.873 202.733 26.2476 207.14 32.8095 207.14Z" fill="#0E1827"/>
<path d="M63.4316 207.14C67.8062 207.14 72.1808 202.733 72.1808 198.326C72.1808 193.919 67.8062 189.511 63.4316 189.511C59.057 189.511 54.6824 193.919 54.6824 198.326C54.6824 202.733 59.057 207.14 63.4316 207.14Z" fill="#0E1827"/>
<path d="M94.0533 204.936C98.4279 204.936 100.615 202.733 100.615 198.325C100.615 193.918 98.4279 191.715 94.0533 191.715C91.866 191.715 89.6787 193.918 89.6787 198.325C89.6787 202.733 91.866 204.936 94.0533 204.936Z" fill="#0E1827"/>
<path d="M126.863 202.733C129.05 202.733 131.237 200.529 131.237 198.326C131.237 196.122 129.05 193.918 126.863 193.918C124.675 193.918 122.488 196.122 122.488 198.326C122.488 200.529 124.675 202.733 126.863 202.733Z" fill="#0E1827"/>
<path d="M157.485 202.733C159.673 202.733 161.86 200.529 161.86 198.326C161.86 196.122 159.673 193.918 157.485 193.918C155.298 193.918 153.111 196.122 153.111 198.326C153.111 200.529 155.298 202.733 157.485 202.733Z" fill="#0E1827"/>
<path d="M190.295 202.733C192.711 202.733 194.669 200.76 194.669 198.326C194.669 195.892 192.711 193.918 190.295 193.918C187.879 193.918 185.92 195.892 185.92 198.326C185.92 200.76 187.879 202.733 190.295 202.733Z" fill="#0E1827"/>
<path d="M220.918 204.936C225.293 204.936 227.48 202.733 227.48 198.325C227.48 193.918 225.293 191.715 220.918 191.715C216.543 191.715 214.356 193.918 214.356 198.325C214.356 202.733 216.543 204.936 220.918 204.936Z" fill="#0E1827"/>
<path d="M251.538 204.936C255.913 204.936 258.1 202.733 258.1 198.325C258.1 193.918 255.913 191.715 251.538 191.715C247.164 191.715 244.976 193.918 244.976 198.325C244.976 202.733 249.351 204.936 251.538 204.936Z" fill="#0E1827"/>
<path d="M284.348 207.14C288.723 207.14 293.097 202.733 293.097 198.326C293.097 193.919 288.723 189.511 284.348 189.511C279.974 189.511 275.599 193.919 275.599 198.326C273.412 204.937 277.786 207.14 284.348 207.14Z" fill="#0E1827"/>
<path d="M314.971 207.14C319.345 207.14 323.72 202.733 323.72 198.326C323.72 193.919 319.345 189.511 314.971 189.511C310.596 189.511 306.222 193.919 306.222 198.326C306.222 202.733 310.596 207.14 314.971 207.14Z" fill="#0E1827"/>
<path d="M347.78 207.14C352.155 207.14 356.529 202.733 356.529 198.326C356.529 193.919 352.155 189.511 347.78 189.511C343.406 189.511 339.031 193.919 339.031 198.326C339.031 202.733 343.406 207.14 347.78 207.14Z" fill="#0E1827"/>
<path d="M378.402 204.936C382.777 204.936 384.964 202.733 384.964 198.325C384.964 193.918 382.777 191.715 378.402 191.715C374.028 191.715 371.84 193.918 371.84 198.325C371.84 202.733 374.028 204.936 378.402 204.936Z" fill="#0E1827"/>
<path d="M409.023 200.53C411.211 200.53 411.211 198.326 409.023 200.53C411.211 198.326 409.023 198.326 409.023 198.326C409.023 196.122 409.023 198.326 409.023 200.53C409.023 198.326 409.023 200.53 409.023 200.53Z" fill="#0E1827"/>
<path d="M441.833 200.529C444.021 200.529 444.021 200.529 444.021 198.326C444.021 196.122 444.021 196.122 441.833 196.122C439.646 196.122 439.646 196.122 439.646 198.326C439.646 200.529 439.646 200.529 441.833 200.529Z" fill="#0E1827"/>
<path d="M472.457 202.733C474.644 202.733 476.831 200.529 476.831 198.326C476.831 196.122 474.644 193.918 472.457 193.918C470.269 193.918 468.082 196.122 468.082 198.326C468.082 200.529 470.269 202.733 472.457 202.733Z" fill="#0E1827"/>
<path d="M505.265 207.14C509.639 207.14 514.014 202.733 514.014 198.326C514.014 193.919 509.639 189.511 505.265 189.511C500.89 189.511 496.516 193.919 496.516 198.326C496.516 202.733 500.89 207.14 505.265 207.14Z" fill="#0E1827"/>
<path d="M32.8095 240.195C39.3714 240.195 43.746 235.787 43.746 229.177C43.746 224.769 37.1841 220.362 32.8095 220.362C26.2476 220.362 21.873 224.769 21.873 229.177C21.873 235.787 26.2476 240.195 32.8095 240.195Z" fill="#0E1827"/>
<path d="M63.4306 233.584C65.6179 233.584 67.8052 231.38 67.8052 229.176C67.8052 226.973 65.6179 226.973 63.4306 226.973C61.2433 226.973 59.056 229.176 59.056 231.38C59.056 233.584 61.2433 233.584 63.4306 233.584Z" fill="#0E1827"/>
<path d="M94.0533 235.787C96.2406 235.787 98.4279 233.583 98.4279 231.38C98.4279 229.176 96.2406 226.973 94.0533 226.973C91.866 226.973 89.6787 229.176 89.6787 231.38C89.6787 233.583 91.866 235.787 94.0533 235.787Z" fill="#0E1827"/>
<path d="M126.864 240.194C133.426 240.194 137.801 235.787 137.801 229.176C137.801 222.565 133.426 218.158 126.864 218.158C120.302 218.158 115.928 222.565 115.928 229.176C115.928 235.787 120.302 240.194 126.864 240.194Z" fill="#0E1827"/>
<path d="M157.486 237.991C161.861 237.991 166.236 233.584 166.236 229.177C166.236 224.769 161.861 220.362 157.486 220.362C153.112 220.362 148.737 224.769 148.737 229.177C148.737 233.584 153.112 237.991 157.486 237.991Z" fill="#0E1827"/>
<path d="M190.296 237.991C194.67 237.991 199.045 233.584 199.045 229.177C199.045 224.769 194.67 220.362 190.296 220.362C185.921 220.362 181.547 224.769 181.547 229.177C181.547 233.584 183.734 237.991 190.296 237.991Z" fill="#0E1827"/>
<path d="M220.916 240.195C225.291 240.195 229.665 235.787 229.665 231.38C229.665 226.973 225.291 220.362 220.916 220.362C216.541 220.362 212.167 224.769 212.167 229.177C212.167 233.584 216.541 240.195 220.916 240.195Z" fill="#0E1827"/>
<path d="M251.538 235.787C255.162 235.787 258.1 232.828 258.1 229.177C258.1 225.525 255.162 222.566 251.538 222.566C247.914 222.566 244.976 225.525 244.976 229.177C244.976 232.828 247.914 235.787 251.538 235.787Z" fill="#0E1827"/>
<path d="M284.348 237.991C288.722 237.991 290.909 235.787 290.909 231.38C290.909 226.973 288.722 224.769 284.348 224.769C279.973 224.769 277.786 226.973 277.786 231.38C277.786 235.787 279.973 237.991 284.348 237.991Z" fill="#0E1827"/>
<path d="M314.971 237.991C319.345 237.991 323.72 233.584 323.72 229.177C323.72 224.769 319.345 220.362 314.971 220.362C310.596 220.362 306.222 224.769 306.222 229.177C306.222 235.787 310.596 237.991 314.971 237.991Z" fill="#0E1827"/>
<path d="M347.78 237.991C352.155 237.991 356.529 233.584 356.529 229.177C356.529 224.769 352.155 220.362 347.78 220.362C343.406 220.362 339.031 224.769 339.031 229.177C339.031 233.584 343.406 237.991 347.78 237.991Z" fill="#0E1827"/>
<path d="M378.403 237.991C382.778 237.991 387.152 233.584 387.152 229.177C387.152 224.769 382.778 220.362 378.403 220.362C374.028 220.362 369.654 224.769 369.654 229.177C369.654 235.787 374.028 237.991 378.403 237.991Z" fill="#0E1827"/>
<path d="M409.026 240.195C413.4 240.195 417.775 235.787 417.775 231.38C417.775 226.973 413.4 222.566 409.026 222.566C404.651 222.566 400.276 226.973 400.276 231.38C400.276 235.787 404.651 240.195 409.026 240.195Z" fill="#0E1827"/>
<path d="M441.833 231.38C441.833 229.176 441.833 229.176 441.833 231.38C441.833 229.176 439.646 229.176 441.833 231.38C439.646 231.38 441.833 231.38 441.833 231.38Z" fill="#0E1827"/>
<path d="M472.456 231.38C473.664 231.38 474.643 230.393 474.643 229.176C474.643 227.959 473.664 226.973 472.456 226.973C471.248 226.973 470.269 227.959 470.269 229.176C470.269 230.393 471.248 231.38 472.456 231.38Z" fill="#0E1827"/>
<path d="M63.4325 264.434C65.6198 264.434 65.6198 264.434 65.6198 262.23C65.6198 260.027 63.4325 260.027 63.4325 260.027C61.2452 260.027 61.2452 262.23 61.2452 262.23C61.2452 264.434 61.2452 264.434 63.4325 264.434Z" fill="#0E1827"/>
<path d="M94.0542 271.045C98.4288 271.045 102.803 266.638 102.803 262.231C102.803 257.823 98.4288 253.416 94.0542 253.416C89.6796 253.416 85.3051 257.823 85.3051 262.231C85.3051 266.638 89.6796 271.045 94.0542 271.045Z" fill="#0E1827"/>
<path d="M126.864 271.045C131.238 271.045 135.613 266.638 135.613 262.231C135.613 257.823 131.238 253.416 126.864 253.416C122.489 253.416 118.115 257.823 118.115 262.231C118.115 266.638 120.302 271.045 126.864 271.045Z" fill="#0E1827"/>
<path d="M157.486 268.842C161.86 268.842 164.048 266.638 164.048 262.231C164.048 257.824 161.86 255.62 157.486 255.62C153.111 255.62 150.924 257.824 150.924 262.231C150.924 266.638 155.299 268.842 157.486 268.842Z" fill="#0E1827"/>
<path d="M190.296 271.045C194.67 271.045 199.045 266.638 199.045 262.231C199.045 257.823 194.67 253.416 190.296 253.416C185.921 253.416 181.547 257.823 181.547 262.231C181.547 266.638 185.921 271.045 190.296 271.045Z" fill="#0E1827"/>
<path d="M220.918 268.842C225.293 268.842 227.48 266.638 227.48 262.231C227.48 257.824 225.293 255.62 220.918 255.62C216.543 255.62 214.356 257.824 214.356 262.231C214.356 266.638 216.543 268.842 220.918 268.842Z" fill="#0E1827"/>
<path d="M251.538 268.842C255.913 268.842 258.1 266.638 258.1 262.231C258.1 257.824 255.913 255.62 251.538 255.62C247.164 255.62 244.976 257.824 244.976 262.231C247.164 264.435 249.351 268.842 251.538 268.842Z" fill="#0E1827"/>
<path d="M284.348 271.045C288.723 271.045 293.097 266.638 293.097 262.231C293.097 257.823 288.723 253.416 284.348 253.416C279.974 253.416 275.599 257.823 275.599 262.231C275.599 266.638 279.974 271.045 284.348 271.045Z" fill="#0E1827"/>
<path d="M314.97 268.842C319.345 268.842 321.532 264.435 321.532 262.231C321.532 257.824 317.158 255.62 314.97 255.62C310.596 255.62 308.408 260.027 308.408 262.231C308.408 266.638 310.596 268.842 314.97 268.842Z" fill="#0E1827"/>
<path d="M347.78 271.045C352.155 271.045 356.529 266.638 356.529 262.231C356.529 257.823 352.155 253.416 347.78 253.416C343.406 253.416 339.031 257.823 339.031 262.231C339.031 266.638 341.218 271.045 347.78 271.045Z" fill="#0E1827"/>
<path d="M378.403 273.249C384.965 273.249 389.34 268.841 389.34 262.231C389.34 255.62 384.965 251.213 378.403 251.213C371.841 251.213 367.467 255.62 367.467 262.231C367.467 268.841 371.841 273.249 378.403 273.249Z" fill="#0E1827"/>
<path d="M409.024 273.249C415.585 273.249 419.96 268.841 419.96 262.231C419.96 255.62 415.585 251.213 409.024 251.213C402.462 251.213 398.087 255.62 398.087 262.231C400.274 268.841 404.649 273.249 409.024 273.249Z" fill="#0E1827"/>
<path d="M441.834 264.435C441.834 264.435 444.021 262.231 441.834 264.435C444.021 262.231 441.834 262.231 441.834 262.231C439.647 260.027 439.647 260.027 441.834 264.435C439.647 262.231 439.647 264.435 441.834 264.435Z" fill="#0E1827"/>
<path d="M32.8105 295.285C34.9977 293.081 32.8105 293.081 32.8105 293.081C30.6232 293.081 30.6232 293.081 32.8105 295.285C30.6232 295.285 30.6232 295.285 32.8105 295.285Z" fill="#0E1827"/>
<path d="M63.4322 304.099C69.9941 304.099 74.3686 299.692 74.3686 293.081C74.3686 286.47 69.9941 282.063 63.4322 282.063C56.8703 282.063 52.4957 286.47 52.4957 293.081C52.4957 299.692 56.8703 304.099 63.4322 304.099Z" fill="#0E1827"/>
<path d="M94.0542 304.1C98.4288 304.1 102.803 299.692 102.803 295.285C102.803 290.878 98.4288 286.471 94.0542 286.471C89.6796 286.471 85.3051 290.878 85.3051 295.285C85.3051 299.692 89.6796 304.1 94.0542 304.1Z" fill="#0E1827"/>
<path d="M126.864 301.896C131.238 301.896 135.613 297.489 135.613 293.081C135.613 288.674 131.238 284.267 126.864 284.267C122.489 284.267 118.115 288.674 118.115 293.081C118.115 297.489 122.489 301.896 126.864 301.896Z" fill="#0E1827"/>
<path d="M157.486 301.896C161.861 301.896 166.236 297.489 166.236 293.081C166.236 288.674 161.861 284.267 157.486 284.267C153.112 284.267 148.737 288.674 148.737 293.081C148.737 297.489 153.112 301.896 157.486 301.896Z" fill="#0E1827"/>
<path d="M190.294 304.099C196.856 304.099 201.23 299.692 201.23 293.081C201.23 286.47 196.856 282.063 190.294 282.063C183.732 282.063 179.357 286.47 179.357 293.081C179.357 299.692 183.732 304.099 190.294 304.099Z" fill="#0E1827"/>
<path d="M220.916 301.896C225.291 301.896 229.665 297.489 229.665 293.081C229.665 288.674 225.291 286.471 220.916 286.471C216.541 286.471 212.167 290.878 212.167 295.285C212.167 299.692 216.541 301.896 220.916 301.896Z" fill="#0E1827"/>
<path d="M251.538 299.692C255.913 299.692 258.1 297.489 258.1 293.081C258.1 288.674 255.913 286.471 251.538 286.471C247.164 286.471 244.976 288.674 244.976 293.081C244.976 297.489 249.351 299.692 251.538 299.692Z" fill="#0E1827"/>
<path d="M284.348 301.896C288.723 301.896 293.097 297.489 293.097 293.081C293.097 288.674 288.723 286.471 284.348 286.471C279.974 286.471 275.599 290.878 275.599 295.285C275.599 299.692 279.974 301.896 284.348 301.896Z" fill="#0E1827"/>
<path d="M314.971 301.896C319.803 301.896 323.72 297.949 323.72 293.081C323.72 288.213 319.803 284.267 314.971 284.267C310.139 284.267 306.222 288.213 306.222 293.081C306.222 297.949 310.139 301.896 314.971 301.896Z" fill="#0E1827"/>
<path d="M347.781 304.099C354.343 304.099 358.717 299.692 358.717 293.081C358.717 286.47 354.343 282.063 347.781 282.063C341.219 282.063 336.844 286.47 336.844 293.081C336.844 299.692 341.219 304.099 347.781 304.099Z" fill="#0E1827"/>
<path d="M378.403 304.099C384.443 304.099 389.34 299.166 389.34 293.081C389.34 286.996 384.443 282.063 378.403 282.063C372.363 282.063 367.467 286.996 367.467 293.081C367.467 299.166 372.363 304.099 378.403 304.099Z" fill="#0E1827"/>
<path d="M409.026 304.1C413.4 304.1 417.775 299.692 417.775 295.285C417.775 290.878 413.4 286.471 409.026 286.471C404.651 286.471 400.276 290.878 400.276 295.285C400.276 299.692 404.651 304.1 409.026 304.1Z" fill="#0E1827"/>
<path d="M441.835 301.896C446.21 301.896 450.584 297.489 450.584 293.081C450.584 288.674 446.21 284.267 441.835 284.267C437.46 284.267 433.086 288.674 433.086 293.081C433.086 297.489 437.46 301.896 441.835 301.896Z" fill="#0E1827"/>
<path d="M472.455 301.896C477.287 301.896 481.204 297.949 481.204 293.081C481.204 288.213 477.287 284.267 472.455 284.267C467.623 284.267 463.706 288.213 463.706 293.081C463.706 297.949 467.623 301.896 472.455 301.896Z" fill="#0E1827"/>
<path d="M32.8092 334.95C37.1838 334.95 41.5584 330.543 41.5584 326.136C41.5584 321.728 37.1838 317.321 32.8092 317.321C28.4346 317.321 24.06 321.728 24.06 326.136C21.8727 330.543 26.2473 334.95 32.8092 334.95Z" fill="#0E1827"/>
<path d="M63.4321 326.135C63.4321 326.135 65.6194 326.135 63.4321 326.135C65.6194 323.932 63.4321 323.932 63.4321 323.932C63.4321 323.932 63.4321 323.932 63.4321 326.135Z" fill="#0E1827"/>
<path d="M94.0542 334.95C98.4288 334.95 102.803 330.543 102.803 326.136C102.803 321.728 98.4288 317.321 94.0542 317.321C89.6796 317.321 85.3051 321.728 85.3051 326.136C85.3051 330.543 89.6796 334.95 94.0542 334.95Z" fill="#0E1827"/>
<path d="M126.864 334.95C131.238 334.95 135.613 330.543 135.613 326.136C135.613 321.728 131.238 317.321 126.864 317.321C122.489 317.321 118.115 321.728 118.115 326.136C118.115 330.543 122.489 334.95 126.864 334.95Z" fill="#0E1827"/>
<path d="M157.484 337.154C164.046 337.154 168.421 332.746 168.421 326.136C168.421 319.525 164.046 315.117 157.484 315.117C150.923 315.117 146.548 319.525 146.548 326.136C146.548 330.543 150.923 337.154 157.484 337.154Z" fill="#0E1827"/>
<path d="M190.296 334.95C194.67 334.95 199.045 330.543 199.045 326.136C199.045 321.728 194.67 317.321 190.296 317.321C185.921 317.321 181.547 321.728 181.547 326.136C181.547 330.543 183.734 334.95 190.296 334.95Z" fill="#0E1827"/>
<path d="M220.918 332.747C225.293 332.747 227.48 330.543 227.48 326.136C227.48 321.729 225.293 319.525 220.918 319.525C216.543 319.525 214.356 321.729 214.356 326.136C214.356 328.339 216.543 332.747 220.918 332.747Z" fill="#0E1827"/>
<path d="M251.538 332.747C255.913 332.747 258.1 328.339 258.1 326.136C258.1 321.729 253.726 319.525 251.538 319.525C247.164 319.525 244.976 323.932 244.976 326.136C244.976 330.543 249.351 332.747 251.538 332.747Z" fill="#0E1827"/>
<path d="M284.35 330.543C286.537 330.543 288.724 328.34 288.724 326.136C288.724 323.932 286.537 321.729 284.35 321.729C282.162 321.729 279.975 323.932 279.975 326.136C279.975 328.34 282.162 330.543 284.35 330.543Z" fill="#0E1827"/>
<path d="M314.97 328.339C317.157 328.339 319.344 326.136 319.344 323.932C319.344 321.728 317.157 319.525 314.97 319.525C312.782 319.525 310.595 321.728 310.595 323.932C312.782 328.339 312.782 328.339 314.97 328.339Z" fill="#0E1827"/>
<path d="M347.781 334.95C354.343 334.95 358.717 330.543 358.717 323.932C358.717 317.321 354.343 312.914 347.781 312.914C341.219 312.914 336.844 317.321 336.844 323.932C336.844 330.543 341.219 334.95 347.781 334.95Z" fill="#0E1827"/>
<path d="M378.402 332.747C382.777 332.747 384.964 330.543 384.964 326.136C384.964 321.729 382.777 319.525 378.402 319.525C374.028 319.525 371.84 321.729 371.84 326.136C371.84 328.339 374.028 332.747 378.402 332.747Z" fill="#0E1827"/>
<path d="M409.024 337.154C415.585 337.154 419.96 332.746 419.96 326.136C419.96 319.525 415.585 315.117 409.024 315.117C402.462 315.117 398.087 319.525 398.087 326.136C400.274 330.543 404.649 337.154 409.024 337.154Z" fill="#0E1827"/>
<path d="M441.833 326.135C444.02 323.932 441.833 323.932 441.833 323.932C441.833 323.932 439.646 323.932 441.833 326.135C439.646 326.135 441.833 326.135 441.833 326.135Z" fill="#0E1827"/>
<path d="M32.8083 359.19C34.9956 359.19 34.9956 356.987 34.9956 356.987C34.9956 354.783 32.8083 354.783 32.8083 354.783C30.621 354.783 30.621 356.987 30.621 356.987C28.4337 359.19 30.621 359.19 32.8083 359.19Z" fill="#0E1827"/>
<path d="M63.4325 359.19C65.6198 359.19 65.6198 359.19 65.6198 356.987C65.6198 354.783 63.4325 354.783 63.4325 354.783C61.2452 354.783 61.2452 356.987 61.2452 356.987C61.2452 359.19 61.2452 359.19 63.4325 359.19Z" fill="#0E1827"/>
<path d="M94.0533 361.394C96.2406 361.394 98.4279 359.19 98.4279 356.986C98.4279 354.783 96.2406 352.579 94.0533 352.579C91.866 352.579 89.6787 354.783 89.6787 356.986C91.866 359.19 94.0533 361.394 94.0533 361.394Z" fill="#0E1827"/>
<path d="M126.864 368.004C133.426 368.004 137.801 363.597 137.801 356.986C137.801 350.375 133.426 345.968 126.864 345.968C120.302 345.968 115.928 350.375 115.928 356.986C115.928 363.597 120.302 368.004 126.864 368.004Z" fill="#0E1827"/>
<path d="M157.484 368.004C164.046 368.004 168.421 363.597 168.421 356.986C168.421 350.375 164.046 345.968 157.484 345.968C150.923 345.968 146.548 350.375 146.548 356.986C148.735 363.597 153.11 368.004 157.484 368.004Z" fill="#0E1827"/>
<path d="M190.296 365.801C195.128 365.801 199.045 361.854 199.045 356.986C199.045 352.118 195.128 348.172 190.296 348.172C185.464 348.172 181.547 352.118 181.547 356.986C181.547 361.854 185.464 365.801 190.296 365.801Z" fill="#0E1827"/>
<path d="M220.916 365.801C225.291 365.801 229.665 361.393 229.665 356.986C229.665 352.579 225.291 348.172 220.916 348.172C216.541 348.172 212.167 352.579 212.167 356.986C212.167 361.393 216.541 365.801 220.916 365.801Z" fill="#0E1827"/>
<path d="M251.538 363.597C255.913 363.597 258.1 361.393 258.1 356.986C258.1 352.579 255.913 350.375 251.538 350.375C247.164 350.375 244.976 352.579 244.976 356.986C244.976 361.393 249.351 363.597 251.538 363.597Z" fill="#0E1827"/>
<path d="M284.35 361.394C286.537 361.394 288.724 359.19 288.724 356.986C288.724 354.783 286.537 352.579 284.35 352.579C282.162 352.579 279.975 354.783 279.975 356.986C279.975 359.19 282.162 361.394 284.35 361.394Z" fill="#0E1827"/>
<path d="M314.97 363.597C319.345 363.597 321.532 359.19 321.532 356.986C321.532 354.783 317.158 350.375 314.97 350.375C312.783 350.375 308.408 354.783 308.408 356.986C308.408 359.19 310.596 363.597 314.97 363.597Z" fill="#0E1827"/>
<path d="M347.78 365.801C352.155 365.801 356.529 361.393 356.529 356.986C356.529 352.579 352.155 348.172 347.78 348.172C343.406 348.172 339.031 352.579 339.031 356.986C339.031 361.393 343.406 365.801 347.78 365.801Z" fill="#0E1827"/>
<path d="M378.403 365.801C382.778 365.801 387.152 361.393 387.152 356.986C387.152 352.579 382.778 348.172 378.403 348.172C374.028 348.172 369.654 352.579 369.654 356.986C369.654 361.393 374.028 365.801 378.403 365.801Z" fill="#0E1827"/>
<path d="M409.023 359.19C411.211 359.19 411.211 356.986 409.023 359.19C411.211 356.986 409.023 356.986 409.023 356.986C409.023 356.986 409.023 356.986 409.023 359.19C409.023 356.986 409.023 359.19 409.023 359.19Z" fill="#0E1827"/>
<path d="M441.835 365.801C446.667 365.801 450.584 361.854 450.584 356.986C450.584 352.118 446.667 348.172 441.835 348.172C437.003 348.172 433.086 352.118 433.086 356.986C433.086 361.854 437.003 365.801 441.835 365.801Z" fill="#0E1827"/>
<path d="M94.0547 390.041C96.242 390.041 96.242 390.041 94.0547 390.041C96.242 387.837 94.0547 387.837 94.0547 387.837C94.0547 387.837 94.0547 387.837 94.0547 390.041Z" fill="#0E1827"/>
<path d="M126.864 398.855C133.426 398.855 137.801 394.448 137.801 387.837C137.801 381.226 133.426 376.819 126.864 376.819C120.302 376.819 115.928 381.226 115.928 387.837C115.928 394.448 120.302 398.855 126.864 398.855Z" fill="#0E1827"/>
<path d="M157.486 398.855C161.861 398.855 166.236 394.448 166.236 390.041C166.236 385.633 161.861 381.226 157.486 381.226C153.112 381.226 148.737 385.633 148.737 390.041C148.737 394.448 153.112 398.855 157.486 398.855Z" fill="#0E1827"/>
<path d="M190.296 396.651C194.67 396.651 199.045 392.244 199.045 387.837C199.045 383.429 194.67 379.022 190.296 379.022C185.921 379.022 181.547 383.429 181.547 387.837C181.547 394.448 185.921 396.651 190.296 396.651Z" fill="#0E1827"/>
<path d="M220.917 392.244C223.104 392.244 223.104 392.244 223.104 390.041C223.104 387.837 223.104 387.837 220.917 387.837C218.73 387.837 218.73 387.837 218.73 390.041L220.917 392.244Z" fill="#0E1827"/>
<path d="M251.538 394.448C255.913 394.448 258.1 392.244 258.1 387.837C258.1 383.43 255.913 381.226 251.538 381.226C247.164 381.226 244.976 383.43 244.976 387.837C247.164 392.244 249.351 394.448 251.538 394.448Z" fill="#0E1827"/>
<path d="M284.35 392.244C286.537 392.244 288.724 390.041 288.724 387.837C288.724 385.633 286.537 383.43 284.35 383.43C282.162 383.43 279.975 385.633 279.975 387.837C279.975 390.041 282.162 392.244 284.35 392.244Z" fill="#0E1827"/>
<path d="M314.97 396.652C319.345 396.652 321.532 394.448 321.532 390.041C321.532 385.633 319.345 383.43 314.97 383.43C310.596 383.43 308.408 385.633 308.408 390.041C308.408 392.244 310.596 396.652 314.97 396.652Z" fill="#0E1827"/>
<path d="M347.779 390.041C347.779 390.041 349.966 390.041 347.779 390.041C349.966 387.837 349.966 385.634 347.779 385.634C345.592 387.837 345.592 387.837 347.779 390.041C345.592 390.041 345.592 390.041 347.779 390.041Z" fill="#0E1827"/>
<path d="M378.402 394.448C382.777 394.448 384.964 392.244 384.964 387.837C384.964 383.43 382.777 381.226 378.402 381.226C374.028 381.226 371.84 383.43 371.84 387.837C371.84 392.244 374.028 394.448 378.402 394.448Z" fill="#0E1827"/>
<path d="M409.025 394.448C413.4 394.448 415.587 392.244 415.587 387.837C415.587 383.43 413.4 381.226 409.025 381.226C404.65 381.226 402.463 383.43 402.463 387.837C404.65 392.244 406.838 394.448 409.025 394.448Z" fill="#0E1827"/>
<path d="M94.0528 423.095C96.2401 423.095 96.2401 420.891 96.2401 420.891C98.4274 418.688 96.2401 418.688 94.0528 418.688C91.8655 418.688 91.8655 420.891 91.8655 420.891C91.8655 423.095 94.0528 423.095 94.0528 423.095Z" fill="#0E1827"/>
<path d="M126.863 423.095C126.863 423.095 129.05 420.891 126.863 423.095C129.05 420.891 126.863 418.688 126.863 418.688C124.675 418.688 124.675 418.688 126.863 423.095C124.675 420.891 124.675 423.095 126.863 423.095Z" fill="#0E1827"/>
<path d="M157.486 427.502C161.86 427.502 164.048 425.298 164.048 420.891C164.048 416.484 161.86 414.28 157.486 414.28C153.111 414.28 150.924 416.484 150.924 420.891C150.924 423.095 155.299 427.502 157.486 427.502Z" fill="#0E1827"/>
<path d="M190.294 431.91C196.334 431.91 201.23 426.977 201.23 420.891C201.23 414.806 196.334 409.873 190.294 409.873C184.254 409.873 179.357 414.806 179.357 420.891C179.357 426.977 184.254 431.91 190.294 431.91Z" fill="#0E1827"/>
<path d="M220.917 425.299C223.333 425.299 225.292 423.325 225.292 420.891C225.292 418.457 223.333 416.484 220.917 416.484C218.501 416.484 216.543 418.457 216.543 420.891C216.543 423.325 218.501 425.299 220.917 425.299Z" fill="#0E1827"/>
<path d="M251.54 423.095C252.748 423.095 253.727 422.108 253.727 420.891C253.727 419.674 252.748 418.688 251.54 418.688C250.332 418.688 249.352 419.674 249.352 420.891C249.352 422.108 250.332 423.095 251.54 423.095Z" fill="#0E1827"/>
<path d="M284.348 429.705C288.723 429.705 293.097 425.298 293.097 420.891C293.097 416.484 288.723 412.077 284.348 412.077C279.974 412.077 275.599 416.484 275.599 420.891C275.599 425.298 279.974 429.705 284.348 429.705Z" fill="#0E1827"/>
<path d="M314.97 425.299C317.157 425.299 319.344 423.095 319.344 420.891C319.344 418.688 317.157 416.484 314.97 416.484C312.782 416.484 310.595 418.688 310.595 420.891C310.595 423.095 312.782 425.299 314.97 425.299Z" fill="#0E1827"/>
<path d="M347.78 425.299C349.967 425.299 352.155 423.095 352.155 420.891C352.155 418.688 349.967 416.484 347.78 416.484C345.593 416.484 343.406 418.688 343.406 420.891C341.218 423.095 343.406 425.299 347.78 425.299Z" fill="#0E1827"/>
<path d="M378.402 425.299C380.589 425.299 382.776 423.095 382.776 420.891C382.776 418.688 380.589 416.484 378.402 416.484C376.215 416.484 374.027 418.688 374.027 420.891C374.027 423.095 376.215 425.299 378.402 425.299Z" fill="#0E1827"/>
<path d="M409.026 429.705C413.858 429.705 417.775 425.759 417.775 420.891C417.775 416.023 413.858 412.077 409.026 412.077C404.194 412.077 400.276 416.023 400.276 420.891C400.276 425.759 404.194 429.705 409.026 429.705Z" fill="#0E1827"/>
<path d="M157.484 453.946C159.672 453.946 159.672 453.946 157.484 453.946C159.672 451.742 157.484 451.742 157.484 451.742C157.484 451.742 157.484 451.742 157.484 453.946Z" fill="#0E1827"/>
<path d="M190.295 456.149C192.482 456.149 194.669 453.946 194.669 451.742C194.669 449.538 192.482 447.335 190.295 447.335C188.107 447.335 185.92 449.538 185.92 451.742C185.92 453.946 188.107 456.149 190.295 456.149Z" fill="#0E1827"/>
<path d="M220.916 462.76C227.478 462.76 231.853 458.353 231.853 451.742C231.853 445.131 227.478 440.724 220.916 440.724C214.355 440.724 209.98 445.131 209.98 451.742C209.98 458.353 214.355 462.76 220.916 462.76Z" fill="#0E1827"/>
<path d="M251.539 462.76C258.101 462.76 262.476 458.353 262.476 451.742C262.476 445.131 258.101 440.724 251.539 440.724C244.977 440.724 240.603 445.131 240.603 451.742C242.79 458.353 247.165 462.76 251.539 462.76Z" fill="#0E1827"/>
<path d="M284.35 456.149C286.537 456.149 288.724 453.946 288.724 451.742C288.724 449.538 286.537 447.335 284.35 447.335C282.162 447.335 279.975 449.538 279.975 451.742C279.975 453.946 282.162 456.149 284.35 456.149Z" fill="#0E1827"/>
<path d="M314.972 456.149C317.159 456.149 317.159 453.946 317.159 453.946C317.159 451.742 314.972 451.742 314.972 451.742C312.784 451.742 312.784 453.946 312.784 453.946L314.972 456.149Z" fill="#0E1827"/>
<path d="M347.779 456.149C349.967 456.149 349.967 453.946 349.967 453.946C349.967 451.742 347.779 451.742 347.779 451.742C345.592 451.742 345.592 453.946 345.592 453.946C343.405 453.946 345.592 456.149 347.779 456.149Z" fill="#0E1827"/>
<path d="M378.402 458.353C382.777 458.353 384.964 456.149 384.964 451.742C384.964 447.334 382.777 445.131 378.402 445.131C374.028 445.131 371.84 447.334 371.84 451.742C371.84 456.149 374.028 458.353 378.402 458.353Z" fill="#0E1827"/>
<path d="M190.294 484.796C190.294 484.796 190.294 482.592 190.294 484.796C190.294 482.592 188.107 484.796 190.294 484.796C188.107 484.796 190.294 484.796 190.294 484.796Z" fill="#0E1827"/>
<path d="M314.97 487C317.157 487 319.344 484.796 319.344 482.592C319.344 480.389 317.157 478.185 314.97 478.185C312.782 478.185 310.595 480.389 310.595 482.592C310.595 487 312.782 487 314.97 487Z" fill="#0E1827"/>
<path d="M347.781 484.796C347.781 484.796 347.781 482.592 347.781 484.796C347.781 482.592 345.594 484.796 347.781 484.796C345.594 484.796 347.781 484.796 347.781 484.796Z" fill="#0E1827"/>
<path d="M378.403 484.796C378.403 484.796 380.59 484.796 378.403 484.796C380.59 482.593 378.403 482.593 378.403 482.593C378.403 482.593 378.403 482.593 378.403 484.796Z" fill="#0E1827"/>
</svg>
