<svg width="820" height="780" viewBox="0 0 820 780" fill="none" xmlns="http://www.w3.org/2000/svg">
<path d="M304.873 24.7059C311.882 24.7059 315.386 21.1765 315.386 14.1176C315.386 7.05882 311.882 0 304.873 0C297.865 0 290.856 7.05882 290.856 14.1176C290.856 21.1765 297.865 24.7059 304.873 24.7059Z" fill="#0E1827"/>
<path d="M353.93 24.7057C360.939 24.7057 367.947 17.6469 367.947 10.588C367.947 3.52922 360.939 -3.5296 353.93 -3.5296C346.922 -0.000190973 339.913 7.05863 339.913 14.1175C339.913 21.1763 346.922 24.7057 353.93 24.7057Z" fill="#0E1827"/>
<path d="M402.991 24.7057C409.999 24.7057 417.008 17.6469 417.008 10.588C417.008 3.52922 409.999 -3.5296 402.991 -3.5296C395.982 -3.5296 388.974 3.52922 388.974 10.588C392.478 21.1763 395.982 24.7057 402.991 24.7057Z" fill="#0E1827"/>
<path d="M504.616 24.7057C511.624 24.7057 518.633 17.6469 518.633 10.588C518.633 3.52922 511.624 -3.5296 504.616 -3.5296C497.607 -3.5296 490.599 3.52922 490.599 10.588C494.103 21.1763 497.607 24.7057 504.616 24.7057Z" fill="#0E1827"/>
<path d="M557.179 21.1759C560.683 21.1759 564.188 17.6465 564.188 14.1171C564.188 10.5876 560.683 7.05823 557.179 7.05823C553.675 7.05823 550.171 10.5876 550.171 14.1171C546.666 17.6465 550.171 21.1759 557.179 21.1759Z" fill="#0E1827"/>
<path d="M606.241 14.1173C606.241 14.1173 609.745 14.1173 606.241 14.1173C609.745 10.5878 606.241 10.5878 606.241 10.5878C606.241 10.5878 606.241 10.5878 606.241 14.1173Z" fill="#0E1827"/>
<path d="M150.684 77.6469C157.692 77.6469 164.701 70.588 164.701 63.5292C164.701 56.4704 157.692 49.4116 150.684 49.4116C143.675 49.4116 140.171 56.4704 140.171 63.5292C140.171 70.588 143.675 77.6469 150.684 77.6469Z" fill="#0E1827"/>
<path d="M203.247 67.0583C203.247 67.0583 206.752 67.0583 203.247 67.0583C206.752 63.5288 203.247 59.9994 203.247 59.9994C199.743 59.9994 199.743 63.5288 203.247 67.0583C199.743 67.0583 199.743 67.0583 203.247 67.0583Z" fill="#0E1827"/>
<path d="M252.307 70.5884C255.812 70.5884 259.316 67.059 259.316 63.5296C259.316 60.0002 255.812 56.4708 252.307 56.4708C248.803 56.4708 245.299 60.0002 245.299 63.5296C245.299 67.059 248.803 70.5884 252.307 70.5884Z" fill="#0E1827"/>
<path d="M304.87 77.6469C311.879 77.6469 315.383 70.588 315.383 63.5292C315.383 56.4704 308.374 49.4116 301.366 49.4116C294.357 49.4116 287.349 56.4704 287.349 63.5292C290.853 70.588 297.861 77.6469 304.87 77.6469Z" fill="#0E1827"/>
<path d="M353.931 67.0582C353.931 67.0582 357.435 63.5288 353.931 67.0582C357.435 63.5288 353.931 63.5288 353.931 67.0582C353.931 63.5288 353.931 63.5288 353.931 67.0582C353.931 63.5288 353.931 67.0582 353.931 67.0582Z" fill="#0E1827"/>
<path d="M402.991 67.0583C406.496 67.0583 406.496 67.0583 402.991 67.0583C406.496 63.5288 402.991 59.9994 402.991 59.9994C402.991 59.9994 402.991 63.5288 402.991 67.0583Z" fill="#0E1827"/>
<path d="M504.617 67.0583C508.121 67.0583 508.121 67.0583 508.121 63.5288C508.121 59.9994 508.121 59.9994 504.617 59.9994C501.112 59.9994 501.112 59.9994 501.112 63.5288C501.112 67.0583 504.617 67.0583 504.617 67.0583Z" fill="#0E1827"/>
<path d="M557.179 74.1176C564.187 74.1176 567.692 70.5882 567.692 63.5294C567.692 56.4706 564.187 52.9412 557.179 52.9412C550.17 52.9412 546.666 56.4706 546.666 63.5294C546.666 70.5882 550.17 74.1176 557.179 74.1176Z" fill="#0E1827"/>
<path d="M606.241 67.0587C606.241 67.0587 609.745 63.5293 606.241 67.0587C609.745 63.5293 606.241 63.5293 606.241 63.5293C606.241 59.9999 602.737 63.5293 606.241 67.0587C602.737 63.5293 606.241 67.0587 606.241 67.0587Z" fill="#0E1827"/>
<path d="M52.5657 116.47C56.07 112.941 52.5657 112.941 52.5657 112.941C49.0614 112.941 49.0614 112.941 52.5657 116.47C49.0614 116.47 49.0614 116.47 52.5657 116.47Z" fill="#0E1827"/>
<path d="M150.683 123.529C154.188 123.529 157.692 120 157.692 116.471C161.196 109.412 157.692 105.882 150.683 105.882C147.179 105.882 143.675 109.412 143.675 112.941C143.675 120 147.179 123.529 150.683 123.529Z" fill="#0E1827"/>
<path d="M203.248 123.529C210.257 123.529 213.761 120 213.761 112.941C213.761 109.412 206.752 105.882 203.248 105.882C196.24 105.882 192.735 109.412 192.735 112.941C192.735 120 196.24 123.529 203.248 123.529Z" fill="#0E1827"/>
<path d="M252.307 123.529C255.812 123.529 259.316 120 259.316 116.471C262.82 109.412 259.316 105.882 252.307 105.882C248.803 105.882 245.299 109.412 245.299 112.941C245.299 120 248.803 123.529 252.307 123.529Z" fill="#0E1827"/>
<path d="M304.87 130.588C315.383 130.588 322.391 123.529 322.391 112.941C322.391 102.352 315.383 95.2935 304.87 95.2935C294.357 98.823 287.349 105.882 287.349 112.941C287.349 123.529 294.357 130.588 304.87 130.588Z" fill="#0E1827"/>
<path d="M353.932 134.118C364.445 134.118 374.958 127.059 374.958 112.941C374.958 98.8237 367.949 91.7649 353.932 91.7649C343.419 91.7649 332.906 98.8237 332.906 112.941C332.906 127.059 343.419 134.118 353.932 134.118Z" fill="#0E1827"/>
<path d="M402.991 127.058C410.732 127.058 417.008 120.738 417.008 112.941C417.008 105.144 410.732 98.8231 402.991 98.8231C395.249 98.8231 388.974 105.144 388.974 112.941C388.974 120.738 395.249 127.058 402.991 127.058Z" fill="#0E1827"/>
<path d="M455.555 127.058C462.564 127.058 469.572 120 469.572 112.941C469.572 105.882 462.564 98.8231 455.555 98.8231C448.547 98.8231 441.538 105.882 441.538 112.941C441.538 123.529 448.547 127.058 455.555 127.058Z" fill="#0E1827"/>
<path d="M504.617 119.999C508.121 119.999 508.121 119.999 508.121 116.47C508.121 112.941 508.121 112.941 504.617 112.941C501.112 112.941 501.112 112.941 501.112 116.47L504.617 119.999Z" fill="#0E1827"/>
<path d="M557.181 116.471C559.116 116.471 560.685 114.891 560.685 112.941C560.685 110.992 559.116 109.412 557.181 109.412C555.246 109.412 553.677 110.992 553.677 112.941C553.677 114.891 555.246 116.471 557.181 116.471Z" fill="#0E1827"/>
<path d="M606.241 130.588C616.754 130.588 623.762 123.529 623.762 112.941C623.762 102.352 616.754 95.2935 606.241 95.2935C595.728 95.2935 588.72 102.352 588.72 112.941C588.72 123.529 595.728 130.588 606.241 130.588Z" fill="#0E1827"/>
<path d="M655.298 116.47C658.802 116.47 658.802 116.47 655.298 116.47C658.802 112.941 655.298 112.941 655.298 112.941C655.298 112.941 655.298 112.941 655.298 116.47Z" fill="#0E1827"/>
<path d="M101.625 169.412C105.13 169.412 105.13 169.412 105.13 165.883C105.13 162.353 105.13 162.353 101.625 162.353C98.1211 162.353 98.1211 165.883 98.1211 165.883C98.1211 169.412 98.1211 169.412 101.625 169.412Z" fill="#0E1827"/>
<path d="M150.684 176.47C157.692 176.47 161.197 172.941 161.197 165.882C161.197 158.823 157.692 155.294 150.684 155.294C143.675 155.294 140.171 158.823 140.171 165.882C143.675 169.412 147.179 176.47 150.684 176.47Z" fill="#0E1827"/>
<path d="M203.249 180C210.257 180 217.266 172.941 217.266 165.882C217.266 158.823 210.257 151.764 203.249 151.764C196.24 151.764 189.231 158.823 189.231 165.882C189.231 172.941 192.736 180 203.249 180Z" fill="#0E1827"/>
<path d="M252.309 180C259.318 180 266.326 172.941 266.326 165.882C266.326 158.823 259.318 151.764 252.309 151.764C245.301 151.764 238.292 158.823 238.292 165.882C238.292 172.941 245.301 180 252.309 180Z" fill="#0E1827"/>
<path d="M304.872 176.47C308.377 176.47 315.385 172.941 315.385 165.882C315.385 158.823 308.377 155.294 304.872 155.294C301.368 155.294 294.359 158.823 294.359 165.882C294.359 172.941 297.864 176.47 304.872 176.47Z" fill="#0E1827"/>
<path d="M353.931 183.529C364.443 183.529 371.452 176.47 371.452 165.882C371.452 155.294 364.443 148.235 353.931 148.235C343.418 148.235 336.409 155.294 336.409 165.882C336.409 176.47 343.418 183.529 353.931 183.529Z" fill="#0E1827"/>
<path d="M402.991 183.529C413.504 183.529 420.512 176.47 420.512 165.882C420.512 155.294 413.504 148.235 402.991 148.235C392.478 148.235 385.47 155.294 385.47 165.882C385.47 176.47 395.983 183.529 402.991 183.529Z" fill="#0E1827"/>
<path d="M455.555 180C462.564 180 469.572 172.941 469.572 165.882C469.572 158.823 462.564 151.764 455.555 151.764C448.547 151.764 441.538 158.823 441.538 165.882C441.538 172.941 448.547 180 455.555 180Z" fill="#0E1827"/>
<path d="M504.616 183.529C515.129 183.529 522.137 176.47 522.137 165.882C522.137 155.294 515.129 148.235 504.616 148.235C494.103 148.235 487.095 155.294 487.095 165.882C490.599 172.941 497.608 183.529 504.616 183.529Z" fill="#0E1827"/>
<path d="M557.178 176.47C564.187 176.47 567.691 172.941 567.691 165.882C567.691 158.823 564.187 155.294 557.178 155.294C550.17 155.294 546.665 158.823 546.665 165.882C543.161 172.941 550.17 176.47 557.178 176.47Z" fill="#0E1827"/>
<path d="M606.239 172.941C609.743 172.941 613.248 169.412 613.248 165.882C613.248 162.353 609.743 158.824 606.239 158.824C602.735 158.824 599.23 162.353 599.23 165.882C599.23 169.412 602.735 172.941 606.239 172.941Z" fill="#0E1827"/>
<path d="M707.862 169.411C707.862 169.411 711.366 165.882 707.862 169.411C711.366 165.882 707.862 165.882 707.862 165.882C707.862 162.353 704.358 165.882 707.862 169.411C704.358 165.882 707.862 169.411 707.862 169.411Z" fill="#0E1827"/>
<path d="M52.5657 218.824C56.07 215.294 52.5657 215.294 52.5657 215.294C49.0614 215.294 49.0614 215.294 52.5657 218.824C49.0614 218.824 49.0614 218.824 52.5657 218.824Z" fill="#0E1827"/>
<path d="M101.625 222.353C105.13 222.353 105.13 218.824 105.13 215.294C105.13 211.765 105.13 211.765 101.625 211.765C98.1211 211.765 98.1211 211.765 98.1211 215.294C98.1211 218.824 98.1211 222.353 101.625 222.353Z" fill="#0E1827"/>
<path d="M150.683 225.882C154.188 225.882 157.692 222.352 157.692 218.823C157.692 215.293 154.188 211.764 150.683 211.764C147.179 208.235 143.675 211.764 143.675 215.293C143.675 222.352 147.179 225.882 150.683 225.882Z" fill="#0E1827"/>
<path d="M203.246 218.824C206.751 218.824 206.751 215.294 206.751 215.294C206.751 215.294 206.751 211.765 203.246 211.765C199.742 211.765 199.742 215.294 199.742 215.294C199.742 218.824 199.742 218.824 203.246 218.824Z" fill="#0E1827"/>
<path d="M252.307 225.882C255.812 225.882 262.82 222.353 262.82 215.294C262.82 211.764 259.316 204.706 252.307 204.706C248.803 208.235 245.299 211.764 245.299 215.294C245.299 222.353 248.803 225.882 252.307 225.882Z" fill="#0E1827"/>
<path d="M304.87 232.941C315.383 232.941 322.391 225.883 322.391 215.294C322.391 204.706 315.383 197.647 304.87 197.647C294.357 197.647 287.349 204.706 287.349 215.294C287.349 225.883 294.357 232.941 304.87 232.941Z" fill="#0E1827"/>
<path d="M353.931 232.941C364.443 232.941 371.452 225.883 371.452 215.294C371.452 204.706 364.443 197.647 353.931 197.647C343.418 197.647 336.409 204.706 336.409 215.294C336.409 225.883 343.418 232.941 353.931 232.941Z" fill="#0E1827"/>
<path d="M402.991 232.941C413.504 232.941 420.512 225.883 420.512 215.294C420.512 204.706 413.504 197.647 402.991 197.647C392.478 197.647 385.47 204.706 385.47 215.294C388.974 225.883 395.983 232.941 402.991 232.941Z" fill="#0E1827"/>
<path d="M455.555 232.941C462.564 232.941 469.572 225.882 469.572 218.823C469.572 211.764 462.564 204.706 455.555 204.706C448.547 204.706 441.538 211.764 441.538 218.823C441.538 225.882 445.042 232.941 455.555 232.941Z" fill="#0E1827"/>
<path d="M504.616 229.411C511.624 229.411 518.633 222.352 518.633 215.294C518.633 208.235 511.624 201.176 504.616 201.176C497.607 201.176 490.599 208.235 490.599 215.294C490.599 222.352 497.607 229.411 504.616 229.411Z" fill="#0E1827"/>
<path d="M557.178 222.353C560.683 222.353 560.683 218.824 560.683 215.294C560.683 211.765 560.683 211.765 557.178 211.765C553.674 211.765 550.17 215.294 550.17 218.824C550.17 218.824 553.674 222.353 557.178 222.353Z" fill="#0E1827"/>
<path d="M606.24 229.411C613.981 229.411 620.257 223.09 620.257 215.294C620.257 207.497 613.981 201.176 606.24 201.176C598.498 201.176 592.223 207.497 592.223 215.294C592.223 223.09 598.498 229.411 606.24 229.411Z" fill="#0E1827"/>
<path d="M655.298 218.824C658.803 218.824 658.803 218.824 658.803 215.294C658.803 211.765 658.803 211.765 655.298 211.765C651.794 211.765 651.794 211.765 651.794 215.294C651.794 218.824 655.298 218.824 655.298 218.824Z" fill="#0E1827"/>
<path d="M707.861 232.941C718.374 232.941 725.383 225.883 725.383 215.294C725.383 204.706 718.374 197.647 707.861 197.647C697.348 197.647 690.34 204.706 690.34 215.294C690.34 225.883 697.348 232.941 707.861 232.941Z" fill="#0E1827"/>
<path d="M756.922 218.824C760.426 218.824 760.426 218.824 756.922 218.824C760.426 215.294 756.922 215.294 756.922 215.294C756.922 215.294 756.922 215.294 756.922 218.824Z" fill="#0E1827"/>
<path d="M52.5657 271.764C56.0699 271.764 59.5742 268.235 59.5742 264.706C59.5742 261.176 56.0699 261.176 52.5657 261.176C49.0614 261.176 45.5571 264.706 45.5571 268.235C45.5571 271.764 49.0614 271.764 52.5657 271.764Z" fill="#0E1827"/>
<path d="M101.622 271.764C105.127 271.764 108.631 268.235 108.631 264.706C108.631 261.176 105.127 261.176 101.622 261.176C98.118 261.176 94.6138 264.706 94.6138 268.235C94.6138 271.764 98.118 271.764 101.622 271.764Z" fill="#0E1827"/>
<path d="M150.684 278.824C157.692 278.824 164.701 271.765 164.701 264.706C164.701 257.647 157.692 250.588 150.684 250.588C143.675 254.118 140.171 261.177 140.171 268.235C140.171 275.294 143.675 278.824 150.684 278.824Z" fill="#0E1827"/>
<path d="M203.247 271.764C206.751 271.764 210.255 268.235 210.255 264.706C210.255 261.176 206.751 261.176 203.247 261.176C199.743 261.176 196.238 264.706 196.238 268.235C196.238 271.764 199.743 271.764 203.247 271.764Z" fill="#0E1827"/>
<path d="M252.307 275.294C255.812 275.294 259.316 271.764 259.316 268.235C259.316 264.705 255.812 257.647 252.307 257.647C248.803 257.647 245.299 261.176 245.299 268.235C245.299 275.294 248.803 275.294 252.307 275.294Z" fill="#0E1827"/>
<path d="M304.872 278.823C308.377 278.823 315.385 271.764 315.385 268.235C315.385 261.176 311.881 257.647 304.872 257.647C297.864 257.647 294.359 261.176 294.359 268.235C294.359 271.764 297.864 278.823 304.872 278.823Z" fill="#0E1827"/>
<path d="M353.93 282.352C361.672 282.352 367.947 276.032 367.947 268.235C367.947 260.438 361.672 254.117 353.93 254.117C346.189 254.117 339.913 260.438 339.913 268.235C339.913 276.032 346.189 282.352 353.93 282.352Z" fill="#0E1827"/>
<path d="M402.991 282.352C409.999 282.352 417.008 275.294 417.008 268.235C417.008 261.176 409.999 254.117 402.991 254.117C395.982 254.117 388.974 261.176 388.974 268.235C388.974 275.294 395.982 282.352 402.991 282.352Z" fill="#0E1827"/>
<path d="M455.554 278.823C462.562 278.823 466.067 275.294 466.067 268.235C466.067 261.176 462.562 257.647 455.554 257.647C448.545 257.647 445.041 261.176 445.041 268.235C445.041 271.764 448.545 278.823 455.554 278.823Z" fill="#0E1827"/>
<path d="M504.614 278.823C511.623 278.823 515.127 275.294 515.127 268.235C515.127 261.176 511.623 257.647 504.614 257.647C497.606 257.647 494.102 261.176 494.102 268.235C494.102 271.764 501.11 278.823 504.614 278.823Z" fill="#0E1827"/>
<path d="M557.178 275.294C561.049 275.294 564.187 272.134 564.187 268.235C564.187 264.337 561.049 261.176 557.178 261.176C553.308 261.176 550.17 264.337 550.17 268.235C550.17 272.134 553.308 275.294 557.178 275.294Z" fill="#0E1827"/>
<path d="M606.239 278.823C613.248 278.823 616.752 275.294 616.752 268.235C616.752 261.176 613.248 257.647 606.239 257.647C599.231 257.647 595.727 261.176 595.727 268.235C595.727 275.294 599.231 278.823 606.239 278.823Z" fill="#0E1827"/>
<path d="M655.3 275.294C658.804 275.294 662.308 271.764 662.308 268.235C662.308 264.706 658.804 261.176 655.3 261.176C651.795 261.176 648.291 264.706 648.291 268.235C648.291 271.764 651.795 275.294 655.3 275.294Z" fill="#0E1827"/>
<path d="M707.864 278.823C714.873 278.823 718.377 275.294 718.377 268.235C718.377 261.176 714.873 257.647 707.864 257.647C700.856 257.647 697.352 261.176 697.352 268.235C697.352 275.294 700.856 278.823 707.864 278.823Z" fill="#0E1827"/>
<path d="M756.924 275.294C760.794 275.294 763.932 272.134 763.932 268.235C763.932 264.337 760.794 261.176 756.924 261.176C753.053 261.176 749.915 264.337 749.915 268.235C749.915 272.134 753.053 275.294 756.924 275.294Z" fill="#0E1827"/>
<path d="M52.5643 331.765C59.5729 331.765 66.5814 324.706 66.5814 317.647C66.5814 310.588 59.5729 303.53 52.5643 303.53C42.0515 303.53 35.043 310.588 35.043 317.647C35.043 324.706 42.0515 331.765 52.5643 331.765Z" fill="#0E1827"/>
<path d="M101.624 331.765C108.633 331.765 115.641 324.706 115.641 317.647C115.641 310.588 108.633 303.53 101.624 303.53C94.6155 303.53 87.6069 310.588 87.6069 317.647C87.6069 324.706 94.6155 331.765 101.624 331.765Z" fill="#0E1827"/>
<path d="M150.683 328.235C157.692 328.235 161.196 324.705 161.196 317.646C161.196 310.588 157.692 307.058 150.683 307.058C147.179 307.058 143.675 310.588 143.675 317.646C143.675 324.705 147.179 328.235 150.683 328.235Z" fill="#0E1827"/>
<path d="M203.247 324.705C206.751 324.705 210.255 321.176 210.255 317.647C210.255 314.117 206.751 310.588 203.247 310.588C199.743 310.588 196.238 314.117 196.238 317.647C196.238 321.176 199.743 324.705 203.247 324.705Z" fill="#0E1827"/>
<path d="M252.307 324.705C255.812 324.705 259.316 321.176 259.316 317.647C259.316 314.117 255.812 310.588 252.307 310.588C248.803 310.588 245.299 314.117 245.299 317.647C245.299 321.176 248.803 324.705 252.307 324.705Z" fill="#0E1827"/>
<path d="M304.872 324.705C308.743 324.705 311.88 321.545 311.88 317.647C311.88 313.748 308.743 310.588 304.872 310.588C301.001 310.588 297.863 313.748 297.863 317.647C297.863 321.545 301.001 324.705 304.872 324.705Z" fill="#0E1827"/>
<path d="M353.933 328.235C360.941 328.235 364.446 324.705 364.446 317.646C364.446 310.588 360.941 307.058 353.933 307.058C346.924 307.058 343.42 310.588 343.42 317.646C343.42 324.705 346.924 328.235 353.933 328.235Z" fill="#0E1827"/>
<path d="M402.99 328.235C409.999 328.235 413.503 324.705 413.503 317.646C413.503 310.588 409.999 307.058 402.99 307.058C395.982 307.058 392.478 310.588 392.478 317.646C392.478 324.705 399.486 328.235 402.99 328.235Z" fill="#0E1827"/>
<path d="M455.555 331.765C462.563 331.765 469.572 324.706 469.572 317.647C469.572 310.588 462.563 303.53 455.555 303.53C448.546 303.53 441.538 310.588 441.538 317.647C438.033 328.235 445.042 331.765 455.555 331.765Z" fill="#0E1827"/>
<path d="M504.616 331.765C511.624 331.765 518.633 324.706 518.633 317.647C518.633 310.588 511.624 303.53 504.616 303.53C497.607 303.53 490.599 310.588 490.599 317.647C490.599 324.706 497.607 331.765 504.616 331.765Z" fill="#0E1827"/>
<path d="M557.179 331.765C564.188 331.765 571.196 324.706 571.196 317.647C571.196 310.588 564.188 303.53 557.179 303.53C550.171 303.53 543.162 310.588 543.162 317.647C543.162 324.706 550.171 331.765 557.179 331.765Z" fill="#0E1827"/>
<path d="M606.239 328.235C613.248 328.235 616.752 324.705 616.752 317.646C616.752 310.588 613.248 307.058 606.239 307.058C599.231 307.058 595.727 310.588 595.727 317.646C595.727 324.705 599.231 328.235 606.239 328.235Z" fill="#0E1827"/>
<path d="M655.298 321.177C658.802 321.177 658.802 317.647 655.298 321.177C658.802 317.647 655.298 317.647 655.298 317.647C655.298 314.118 655.298 317.647 655.298 321.177C655.298 317.647 655.298 321.177 655.298 321.177Z" fill="#0E1827"/>
<path d="M707.863 321.176C711.367 321.176 711.367 321.176 711.367 317.647C711.367 314.117 711.367 314.117 707.863 314.117C704.358 314.117 704.358 314.117 704.358 317.647C704.358 321.176 704.358 321.176 707.863 321.176Z" fill="#0E1827"/>
<path d="M756.924 324.705C760.428 324.705 763.932 321.176 763.932 317.647C763.932 314.117 760.428 310.588 756.924 310.588C753.419 310.588 749.915 314.117 749.915 317.647C749.915 321.176 753.419 324.705 756.924 324.705Z" fill="#0E1827"/>
<path d="M809.486 331.765C816.494 331.765 823.503 324.706 823.503 317.647C823.503 310.588 816.494 303.53 809.486 303.53C802.477 303.53 795.469 310.588 795.469 317.647C795.469 324.706 802.477 331.765 809.486 331.765Z" fill="#0E1827"/>
<path d="M52.5643 384.706C63.0772 384.706 70.0857 377.647 70.0857 367.059C70.0857 360 59.5729 352.941 52.5643 352.941C42.0515 352.941 35.043 360 35.043 367.059C35.043 377.647 42.0515 384.706 52.5643 384.706Z" fill="#0E1827"/>
<path d="M101.622 374.117C105.127 374.117 108.631 370.588 108.631 367.058C108.631 363.529 105.127 363.529 101.622 363.529C98.118 363.529 94.6138 367.058 94.6138 370.588C94.6138 374.117 98.118 374.117 101.622 374.117Z" fill="#0E1827"/>
<path d="M150.683 377.647C154.188 377.647 157.692 374.117 157.692 370.588C157.692 367.058 154.188 363.529 150.683 363.529C147.179 363.529 143.675 367.058 143.675 370.588C143.675 374.117 147.179 377.647 150.683 377.647Z" fill="#0E1827"/>
<path d="M203.25 384.706C213.763 384.706 220.771 377.647 220.771 367.059C220.771 356.47 213.763 349.412 203.25 349.412C192.737 349.412 185.729 356.47 185.729 367.059C185.729 377.647 192.737 384.706 203.25 384.706Z" fill="#0E1827"/>
<path d="M252.309 381.176C259.318 381.176 266.326 374.118 266.326 367.059C266.326 360 259.318 352.941 252.309 352.941C245.301 352.941 238.292 360 238.292 367.059C238.292 374.118 245.301 381.176 252.309 381.176Z" fill="#0E1827"/>
<path d="M304.874 381.176C311.882 381.176 318.891 374.118 318.891 367.059C318.891 360 311.882 352.941 304.874 352.941C297.865 352.941 290.856 360 290.856 367.059C290.856 374.118 294.361 381.176 304.874 381.176Z" fill="#0E1827"/>
<path d="M353.93 384.706C360.939 384.706 367.947 377.647 367.947 370.588C367.947 363.529 360.939 352.941 353.93 352.941C346.922 352.941 339.913 360 339.913 367.059C339.913 374.118 346.922 384.706 353.93 384.706Z" fill="#0E1827"/>
<path d="M402.99 377.647C408.796 377.647 413.503 372.907 413.503 367.059C413.503 361.211 408.796 356.471 402.99 356.471C397.184 356.471 392.478 361.211 392.478 367.059C392.478 372.907 397.184 377.647 402.99 377.647Z" fill="#0E1827"/>
<path d="M455.554 381.176C462.562 381.176 466.067 377.646 466.067 370.588C466.067 363.529 462.562 359.999 455.554 359.999C448.545 359.999 445.041 363.529 445.041 370.588C445.041 377.646 448.545 381.176 455.554 381.176Z" fill="#0E1827"/>
<path d="M504.616 381.176C511.624 381.176 518.633 374.118 518.633 367.059C518.633 360 511.624 352.941 504.616 352.941C497.607 352.941 490.599 360 490.599 367.059C490.599 377.647 497.607 381.176 504.616 381.176Z" fill="#0E1827"/>
<path d="M557.179 381.176C564.188 381.176 571.196 374.118 571.196 367.059C571.196 360 564.188 352.941 557.179 352.941C550.171 352.941 543.162 360 543.162 367.059C543.162 374.118 550.171 381.176 557.179 381.176Z" fill="#0E1827"/>
<path d="M606.24 381.176C613.248 381.176 620.257 374.118 620.257 367.059C620.257 360 613.248 352.941 606.24 352.941C599.231 352.941 592.223 360 592.223 367.059C592.223 377.647 599.231 381.176 606.24 381.176Z" fill="#0E1827"/>
<path d="M655.3 384.706C662.309 384.706 669.317 377.647 669.317 370.588C669.317 363.53 662.309 356.471 655.3 356.471C648.292 356.471 641.283 363.53 641.283 370.588C641.283 377.647 648.292 384.706 655.3 384.706Z" fill="#0E1827"/>
<path d="M707.862 370.588C707.862 367.058 707.862 367.058 707.862 370.588C707.862 367.058 704.358 367.058 707.862 370.588C704.358 370.588 707.862 370.588 707.862 370.588Z" fill="#0E1827"/>
<path d="M756.923 370.588C758.859 370.588 760.428 369.008 760.428 367.058C760.428 365.109 758.859 363.529 756.923 363.529C754.988 363.529 753.419 365.109 753.419 367.058C753.419 369.008 754.988 370.588 756.923 370.588Z" fill="#0E1827"/>
<path d="M101.625 423.529C105.13 423.529 105.13 423.529 105.13 420C105.13 416.47 101.625 416.47 101.625 416.47C98.1211 416.47 98.1211 420 98.1211 420C98.1211 423.529 98.1211 423.529 101.625 423.529Z" fill="#0E1827"/>
<path d="M150.684 434.118C157.693 434.118 164.701 427.059 164.701 420C164.701 412.941 157.693 405.882 150.684 405.882C143.676 405.882 136.667 412.941 136.667 420C136.667 427.059 143.676 434.118 150.684 434.118Z" fill="#0E1827"/>
<path d="M203.249 434.118C210.257 434.118 217.266 427.059 217.266 420C217.266 412.941 210.257 405.882 203.249 405.882C196.24 405.882 189.231 412.941 189.231 420C189.231 427.059 192.736 434.118 203.249 434.118Z" fill="#0E1827"/>
<path d="M252.309 430.588C259.317 430.588 262.822 427.059 262.822 420C262.822 412.941 259.317 409.412 252.309 409.412C245.3 409.412 241.796 412.941 241.796 420C241.796 427.059 248.804 430.588 252.309 430.588Z" fill="#0E1827"/>
<path d="M304.874 434.118C311.882 434.118 318.891 427.059 318.891 420C318.891 412.941 311.882 405.882 304.874 405.882C297.865 405.882 290.856 412.941 290.856 420C290.856 427.059 297.865 434.118 304.874 434.118Z" fill="#0E1827"/>
<path d="M353.933 430.588C360.941 430.588 364.446 427.059 364.446 420C364.446 412.941 360.941 409.412 353.933 409.412C346.924 409.412 343.42 412.941 343.42 420C343.42 427.059 346.924 430.588 353.933 430.588Z" fill="#0E1827"/>
<path d="M402.99 430.588C409.999 430.588 413.503 427.059 413.503 420C413.503 412.941 409.999 409.412 402.99 409.412C395.982 409.412 392.478 412.941 392.478 420C395.982 423.53 399.486 430.588 402.99 430.588Z" fill="#0E1827"/>
<path d="M455.555 434.118C462.564 434.118 469.572 427.059 469.572 420C469.572 412.941 462.564 405.882 455.555 405.882C448.547 405.882 441.538 412.941 441.538 420C441.538 427.059 448.547 434.118 455.555 434.118Z" fill="#0E1827"/>
<path d="M504.614 430.588C511.623 430.588 515.127 423.53 515.127 420C515.127 412.941 508.119 409.412 504.614 409.412C497.606 409.412 494.102 416.471 494.102 420C494.102 427.059 497.606 430.588 504.614 430.588Z" fill="#0E1827"/>
<path d="M557.179 434.118C564.188 434.118 571.196 427.059 571.196 420C571.196 412.941 564.188 405.882 557.179 405.882C550.171 405.882 543.162 412.941 543.162 420C543.162 427.059 546.666 434.118 557.179 434.118Z" fill="#0E1827"/>
<path d="M606.241 437.647C616.754 437.647 623.762 430.588 623.762 420C623.762 409.412 616.754 402.353 606.241 402.353C595.728 402.353 588.72 409.412 588.72 420C588.72 430.588 595.728 437.647 606.241 437.647Z" fill="#0E1827"/>
<path d="M655.298 437.647C665.81 437.647 672.819 430.588 672.819 420C672.819 409.412 665.81 402.353 655.298 402.353C644.785 402.353 637.776 409.412 637.776 420C641.281 430.588 648.289 437.647 655.298 437.647Z" fill="#0E1827"/>
<path d="M707.864 423.53C707.864 423.53 711.368 420 707.864 423.53C711.368 420 707.864 420 707.864 420C704.359 416.471 704.359 416.471 707.864 423.53C704.359 420 704.359 423.53 707.864 423.53Z" fill="#0E1827"/>
<path d="M52.5657 472.941C56.07 469.411 52.5657 469.411 52.5657 469.411C49.0614 469.411 49.0614 469.411 52.5657 472.941C49.0614 472.941 49.0614 472.941 52.5657 472.941Z" fill="#0E1827"/>
<path d="M101.625 487.058C112.138 487.058 119.146 480 119.146 469.411C119.146 458.823 112.138 451.764 101.625 451.764C91.1121 451.764 84.1035 458.823 84.1035 469.411C84.1035 480 91.1121 487.058 101.625 487.058Z" fill="#0E1827"/>
<path d="M150.684 487.059C157.693 487.059 164.701 480 164.701 472.941C164.701 465.882 157.693 458.824 150.684 458.824C143.676 458.824 136.667 465.882 136.667 472.941C136.667 480 143.676 487.059 150.684 487.059Z" fill="#0E1827"/>
<path d="M203.249 483.529C210.257 483.529 217.266 476.47 217.266 469.412C217.266 462.353 210.257 455.294 203.249 455.294C196.24 455.294 189.231 462.353 189.231 469.412C189.231 476.47 196.24 483.529 203.249 483.529Z" fill="#0E1827"/>
<path d="M252.309 483.529C259.318 483.529 266.326 476.47 266.326 469.412C266.326 462.353 259.318 455.294 252.309 455.294C245.301 455.294 238.292 462.353 238.292 469.412C238.292 476.47 245.301 483.529 252.309 483.529Z" fill="#0E1827"/>
<path d="M304.87 487.058C315.383 487.058 322.391 480 322.391 469.411C322.391 458.823 315.383 451.764 304.87 451.764C294.357 451.764 287.349 458.823 287.349 469.411C287.349 480 294.357 487.058 304.87 487.058Z" fill="#0E1827"/>
<path d="M353.93 483.529C360.939 483.529 367.947 476.471 367.947 469.412C367.947 462.353 360.939 458.824 353.93 458.824C346.922 458.824 339.913 465.882 339.913 472.941C339.913 480 346.922 483.529 353.93 483.529Z" fill="#0E1827"/>
<path d="M402.99 480C409.999 480 413.503 476.471 413.503 469.412C413.503 462.353 409.999 458.824 402.99 458.824C395.982 458.824 392.478 462.353 392.478 469.412C392.478 476.471 399.486 480 402.99 480Z" fill="#0E1827"/>
<path d="M455.555 483.529C462.564 483.529 469.572 476.471 469.572 469.412C469.572 462.353 462.564 458.824 455.555 458.824C448.547 458.824 441.538 465.882 441.538 472.941C441.538 480 448.547 483.529 455.555 483.529Z" fill="#0E1827"/>
<path d="M504.616 483.529C512.357 483.529 518.633 477.209 518.633 469.412C518.633 461.615 512.357 455.294 504.616 455.294C496.874 455.294 490.599 461.615 490.599 469.412C490.599 477.209 496.874 483.529 504.616 483.529Z" fill="#0E1827"/>
<path d="M557.181 487.058C567.693 487.058 574.702 480 574.702 469.411C574.702 458.823 567.693 451.764 557.181 451.764C546.668 451.764 539.659 458.823 539.659 469.411C539.659 480 546.668 487.058 557.181 487.058Z" fill="#0E1827"/>
<path d="M606.241 487.058C615.918 487.058 623.762 479.158 623.762 469.411C623.762 459.665 615.918 451.764 606.241 451.764C596.564 451.764 588.72 459.665 588.72 469.411C588.72 479.158 596.564 487.058 606.241 487.058Z" fill="#0E1827"/>
<path d="M655.3 487.059C662.309 487.059 669.317 480 669.317 472.941C669.317 465.882 662.309 458.824 655.3 458.824C648.292 458.824 641.283 465.882 641.283 472.941C641.283 480 648.292 487.059 655.3 487.059Z" fill="#0E1827"/>
<path d="M707.865 483.529C714.873 483.529 721.882 476.47 721.882 469.412C721.882 462.353 714.873 455.294 707.865 455.294C700.856 455.294 693.848 462.353 693.848 469.412C693.848 476.47 700.856 483.529 707.865 483.529Z" fill="#0E1827"/>
<path d="M756.921 483.529C764.663 483.529 770.939 477.209 770.939 469.412C770.939 461.615 764.663 455.294 756.921 455.294C749.18 455.294 742.904 461.615 742.904 469.412C742.904 477.209 749.18 483.529 756.921 483.529Z" fill="#0E1827"/>
<path d="M52.5639 536.47C59.5725 536.47 66.581 529.412 66.581 522.353C66.581 515.294 59.5725 508.235 52.5639 508.235C45.5554 508.235 38.5468 515.294 38.5468 522.353C35.0425 529.412 42.0511 536.47 52.5639 536.47Z" fill="#0E1827"/>
<path d="M101.625 522.352C101.625 522.352 105.129 522.352 101.625 522.352C105.129 518.823 101.625 518.823 101.625 518.823C101.625 518.823 101.625 518.823 101.625 522.352Z" fill="#0E1827"/>
<path d="M150.684 536.47C157.693 536.47 164.701 529.412 164.701 522.353C164.701 515.294 157.693 508.235 150.684 508.235C143.676 508.235 136.667 515.294 136.667 522.353C136.667 529.412 143.676 536.47 150.684 536.47Z" fill="#0E1827"/>
<path d="M203.249 536.47C210.257 536.47 217.266 529.412 217.266 522.353C217.266 515.294 210.257 508.235 203.249 508.235C196.24 508.235 189.231 515.294 189.231 522.353C189.231 529.412 196.24 536.47 203.249 536.47Z" fill="#0E1827"/>
<path d="M252.307 540C262.819 540 269.828 532.941 269.828 522.353C269.828 511.764 262.819 504.705 252.307 504.705C241.794 504.705 234.785 511.764 234.785 522.353C234.785 529.411 241.794 540 252.307 540Z" fill="#0E1827"/>
<path d="M304.874 536.47C311.882 536.47 318.891 529.412 318.891 522.353C318.891 515.294 311.882 508.235 304.874 508.235C297.865 508.235 290.856 515.294 290.856 522.353C290.856 529.412 294.361 536.47 304.874 536.47Z" fill="#0E1827"/>
<path d="M353.933 532.941C360.941 532.941 364.446 529.412 364.446 522.353C364.446 515.294 360.941 511.765 353.933 511.765C346.924 511.765 343.42 515.294 343.42 522.353C343.42 525.882 346.924 532.941 353.933 532.941Z" fill="#0E1827"/>
<path d="M402.99 532.941C409.999 532.941 413.503 525.882 413.503 522.353C413.503 515.294 406.495 511.765 402.99 511.765C395.982 511.765 392.478 518.824 392.478 522.353C392.478 529.412 399.486 532.941 402.99 532.941Z" fill="#0E1827"/>
<path d="M455.557 529.412C459.062 529.412 462.566 525.883 462.566 522.353C462.566 518.824 459.062 515.294 455.557 515.294C452.053 515.294 448.549 518.824 448.549 522.353C448.549 525.883 452.053 529.412 455.557 529.412Z" fill="#0E1827"/>
<path d="M504.614 525.882C508.118 525.882 511.623 522.353 511.623 518.823C511.623 515.294 508.118 511.765 504.614 511.765C501.11 511.765 497.605 515.294 497.605 518.823C501.11 525.882 501.11 525.882 504.614 525.882Z" fill="#0E1827"/>
<path d="M557.181 536.47C567.693 536.47 574.702 529.411 574.702 518.823C574.702 508.235 567.693 501.176 557.181 501.176C546.668 501.176 539.659 508.235 539.659 518.823C539.659 529.411 546.668 536.47 557.181 536.47Z" fill="#0E1827"/>
<path d="M606.239 532.941C613.248 532.941 616.752 529.412 616.752 522.353C616.752 515.294 613.248 511.765 606.239 511.765C599.231 511.765 595.727 515.294 595.727 522.353C595.727 525.882 599.231 532.941 606.239 532.941Z" fill="#0E1827"/>
<path d="M655.298 540C665.81 540 672.819 532.941 672.819 522.353C672.819 511.764 665.81 504.705 655.298 504.705C644.785 504.705 637.776 511.764 637.776 522.353C641.281 529.411 648.289 540 655.298 540Z" fill="#0E1827"/>
<path d="M707.862 522.352C711.366 518.823 707.862 518.823 707.862 518.823C707.862 518.823 704.358 518.823 707.862 522.352C704.358 522.352 707.862 522.352 707.862 522.352Z" fill="#0E1827"/>
<path d="M52.5622 575.294C56.0665 575.294 56.0665 571.765 56.0665 571.765C56.0665 568.236 52.5622 568.236 52.5622 568.236C49.058 568.236 49.058 571.765 49.058 571.765C45.5537 575.294 49.058 575.294 52.5622 575.294Z" fill="#0E1827"/>
<path d="M101.625 575.294C105.13 575.294 105.13 575.294 105.13 571.765C105.13 568.236 101.625 568.236 101.625 568.236C98.1211 568.236 98.1211 571.765 98.1211 571.765C98.1211 575.294 98.1211 575.294 101.625 575.294Z" fill="#0E1827"/>
<path d="M150.683 578.823C154.188 578.823 157.692 575.294 157.692 571.765C157.692 568.235 154.188 564.706 150.683 564.706C147.179 564.706 143.675 568.235 143.675 571.765C147.179 575.294 150.683 578.823 150.683 578.823Z" fill="#0E1827"/>
<path d="M203.25 589.411C213.763 589.411 220.771 582.352 220.771 571.764C220.771 561.176 213.763 554.117 203.25 554.117C192.737 554.117 185.729 561.176 185.729 571.764C185.729 582.352 192.737 589.411 203.25 589.411Z" fill="#0E1827"/>
<path d="M252.307 589.411C262.819 589.411 269.828 582.352 269.828 571.764C269.828 561.176 262.819 554.117 252.307 554.117C241.794 554.117 234.785 561.176 234.785 571.764C238.289 582.352 245.298 589.411 252.307 589.411Z" fill="#0E1827"/>
<path d="M304.874 585.882C312.615 585.882 318.891 579.561 318.891 571.764C318.891 563.967 312.615 557.647 304.874 557.647C297.132 557.647 290.856 563.967 290.856 571.764C290.856 579.561 297.132 585.882 304.874 585.882Z" fill="#0E1827"/>
<path d="M353.93 585.882C360.939 585.882 367.947 578.823 367.947 571.764C367.947 564.705 360.939 557.647 353.93 557.647C346.922 557.647 339.913 564.705 339.913 571.764C339.913 578.823 346.922 585.882 353.93 585.882Z" fill="#0E1827"/>
<path d="M402.99 582.353C409.999 582.353 413.503 578.823 413.503 571.764C413.503 564.706 409.999 561.176 402.99 561.176C395.982 561.176 392.478 564.706 392.478 571.764C392.478 578.823 399.486 582.353 402.99 582.353Z" fill="#0E1827"/>
<path d="M455.557 578.823C459.062 578.823 462.566 575.294 462.566 571.765C462.566 568.235 459.062 564.706 455.557 564.706C452.053 564.706 448.549 568.235 448.549 571.765C448.549 575.294 452.053 578.823 455.557 578.823Z" fill="#0E1827"/>
<path d="M504.614 582.353C511.623 582.353 515.127 575.294 515.127 571.764C515.127 568.235 508.119 561.176 504.614 561.176C501.11 561.176 494.102 568.235 494.102 571.764C494.102 575.294 497.606 582.353 504.614 582.353Z" fill="#0E1827"/>
<path d="M557.179 585.882C564.188 585.882 571.196 578.823 571.196 571.764C571.196 564.705 564.188 557.647 557.179 557.647C550.171 557.647 543.162 564.705 543.162 571.764C543.162 578.823 550.171 585.882 557.179 585.882Z" fill="#0E1827"/>
<path d="M606.24 585.882C613.248 585.882 620.257 578.823 620.257 571.764C620.257 564.705 613.248 557.647 606.24 557.647C599.231 557.647 592.223 564.705 592.223 571.764C592.223 578.823 599.231 585.882 606.24 585.882Z" fill="#0E1827"/>
<path d="M655.298 575.293C658.802 575.293 658.802 571.764 655.298 575.293C658.802 571.764 655.298 571.764 655.298 571.764C655.298 571.764 655.298 571.764 655.298 575.293C655.298 571.764 655.298 575.293 655.298 575.293Z" fill="#0E1827"/>
<path d="M707.865 585.882C715.606 585.882 721.882 579.561 721.882 571.764C721.882 563.967 715.606 557.647 707.865 557.647C700.123 557.647 693.848 563.967 693.848 571.764C693.848 579.561 700.123 585.882 707.865 585.882Z" fill="#0E1827"/>
<path d="M150.686 624.706C154.19 624.706 154.19 624.706 150.686 624.706C154.19 621.177 150.686 621.177 150.686 621.177C150.686 621.177 150.686 621.177 150.686 624.706Z" fill="#0E1827"/>
<path d="M203.25 638.824C213.763 638.824 220.771 631.765 220.771 621.177C220.771 610.588 213.763 603.53 203.25 603.53C192.737 603.53 185.729 610.588 185.729 621.177C185.729 631.765 192.737 638.824 203.25 638.824Z" fill="#0E1827"/>
<path d="M252.309 638.823C259.318 638.823 266.326 631.764 266.326 624.706C266.326 617.647 259.318 610.588 252.309 610.588C245.301 610.588 238.292 617.647 238.292 624.706C238.292 631.764 245.301 638.823 252.309 638.823Z" fill="#0E1827"/>
<path d="M304.874 635.294C311.882 635.294 318.891 628.235 318.891 621.176C318.891 614.117 311.882 607.058 304.874 607.058C297.865 607.058 290.856 614.117 290.856 621.176C290.856 631.764 297.865 635.294 304.874 635.294Z" fill="#0E1827"/>
<path d="M353.932 628.235C357.436 628.235 357.436 628.236 357.436 624.706C357.436 621.177 357.436 621.177 353.932 621.177C350.428 621.177 350.428 621.177 350.428 624.706L353.932 628.235Z" fill="#0E1827"/>
<path d="M402.99 631.764C409.999 631.764 413.503 628.235 413.503 621.176C413.503 614.117 409.999 610.588 402.99 610.588C395.982 610.588 392.478 614.117 392.478 621.176C395.982 628.235 399.486 631.764 402.99 631.764Z" fill="#0E1827"/>
<path d="M455.557 628.235C459.062 628.235 462.566 624.706 462.566 621.176C462.566 617.647 459.062 614.117 455.557 614.117C452.053 614.117 448.549 617.647 448.549 621.176C448.549 624.706 452.053 628.235 455.557 628.235Z" fill="#0E1827"/>
<path d="M504.614 635.294C511.623 635.294 515.127 631.765 515.127 624.706C515.127 617.647 511.623 614.117 504.614 614.117C497.606 614.117 494.102 617.647 494.102 624.706C494.102 628.235 497.606 635.294 504.614 635.294Z" fill="#0E1827"/>
<path d="M557.178 624.706C557.178 624.706 560.682 624.706 557.178 624.706C560.682 621.176 560.682 617.647 557.178 617.647C553.674 621.176 553.674 621.176 557.178 624.706C553.674 624.706 553.674 624.706 557.178 624.706Z" fill="#0E1827"/>
<path d="M606.239 631.764C613.248 631.764 616.752 628.235 616.752 621.176C616.752 614.117 613.248 610.588 606.239 610.588C599.231 610.588 595.727 614.117 595.727 621.176C595.727 628.235 599.231 631.764 606.239 631.764Z" fill="#0E1827"/>
<path d="M655.3 631.764C662.309 631.764 665.813 628.235 665.813 621.176C665.813 614.117 662.309 610.588 655.3 610.588C648.291 610.588 644.787 614.117 644.787 621.176C648.291 628.235 651.796 631.764 655.3 631.764Z" fill="#0E1827"/>
<path d="M150.682 677.647C154.186 677.647 154.186 674.118 154.186 674.118C157.691 670.588 154.186 670.588 150.682 670.588C147.178 670.588 147.178 674.118 147.178 674.118C147.178 677.647 150.682 677.647 150.682 677.647Z" fill="#0E1827"/>
<path d="M203.247 677.647C203.247 677.647 206.752 674.118 203.247 677.647C206.752 674.118 203.247 670.588 203.247 670.588C199.743 670.588 199.743 670.588 203.247 677.647C199.743 674.118 199.743 677.647 203.247 677.647Z" fill="#0E1827"/>
<path d="M252.309 684.705C259.317 684.705 262.822 681.176 262.822 674.117C262.822 667.058 259.317 663.529 252.309 663.529C245.3 663.529 241.796 667.058 241.796 674.117C241.796 677.647 248.804 684.705 252.309 684.705Z" fill="#0E1827"/>
<path d="M304.87 691.765C314.547 691.765 322.391 683.864 322.391 674.118C322.391 664.372 314.547 656.471 304.87 656.471C295.193 656.471 287.349 664.372 287.349 674.118C287.349 683.864 295.193 691.765 304.87 691.765Z" fill="#0E1827"/>
<path d="M353.932 681.176C357.803 681.176 360.941 678.016 360.941 674.117C360.941 670.219 357.803 667.059 353.932 667.059C350.062 667.059 346.924 670.219 346.924 674.117C346.924 678.016 350.062 681.176 353.932 681.176Z" fill="#0E1827"/>
<path d="M402.993 677.647C404.928 677.647 406.497 676.067 406.497 674.118C406.497 672.168 404.928 670.588 402.993 670.588C401.057 670.588 399.488 672.168 399.488 674.118C399.488 676.067 401.057 677.647 402.993 677.647Z" fill="#0E1827"/>
<path d="M455.555 688.235C462.564 688.235 469.572 681.176 469.572 674.117C469.572 667.058 462.564 659.999 455.555 659.999C448.547 659.999 441.538 667.058 441.538 674.117C441.538 681.176 448.547 688.235 455.555 688.235Z" fill="#0E1827"/>
<path d="M504.614 681.176C508.118 681.176 511.623 677.647 511.623 674.117C511.623 670.588 508.118 667.059 504.614 667.059C501.11 667.059 497.605 670.588 497.605 674.117C497.605 677.647 501.11 681.176 504.614 681.176Z" fill="#0E1827"/>
<path d="M557.179 681.176C560.683 681.176 564.188 677.647 564.188 674.117C564.188 670.588 560.683 667.059 557.179 667.059C553.675 667.059 550.171 670.588 550.171 674.117C546.666 677.647 550.171 681.176 557.179 681.176Z" fill="#0E1827"/>
<path d="M606.239 681.176C609.743 681.176 613.248 677.647 613.248 674.117C613.248 670.588 609.743 667.059 606.239 667.059C602.735 667.059 599.23 670.588 599.23 674.117C599.23 677.647 602.735 681.176 606.239 681.176Z" fill="#0E1827"/>
<path d="M655.3 688.235C663.042 688.235 669.317 681.914 669.317 674.117C669.317 666.32 663.042 659.999 655.3 659.999C647.559 659.999 641.283 666.32 641.283 674.117C641.283 681.914 647.559 688.235 655.3 688.235Z" fill="#0E1827"/>
<path d="M252.306 727.059C255.81 727.059 255.81 727.059 252.306 727.059C255.81 723.529 252.306 723.529 252.306 723.529C252.306 723.529 252.306 723.529 252.306 727.059Z" fill="#0E1827"/>
<path d="M304.872 730.588C308.376 730.588 311.88 727.058 311.88 723.529C311.88 720 308.376 716.47 304.872 716.47C301.368 716.47 297.863 720 297.863 723.529C297.863 727.058 301.368 730.588 304.872 730.588Z" fill="#0E1827"/>
<path d="M353.931 741.176C364.443 741.176 371.452 734.118 371.452 723.529C371.452 712.941 364.443 705.882 353.931 705.882C343.418 705.882 336.409 712.941 336.409 723.529C336.409 734.118 343.418 741.176 353.931 741.176Z" fill="#0E1827"/>
<path d="M402.991 741.176C413.504 741.176 420.512 734.118 420.512 723.529C420.512 712.941 413.504 705.882 402.991 705.882C392.478 705.882 385.47 712.941 385.47 723.529C388.974 734.118 395.983 741.176 402.991 741.176Z" fill="#0E1827"/>
<path d="M455.557 730.588C459.062 730.588 462.566 727.058 462.566 723.529C462.566 720 459.062 716.47 455.557 716.47C452.053 716.47 448.549 720 448.549 723.529C448.549 727.058 452.053 730.588 455.557 730.588Z" fill="#0E1827"/>
<path d="M504.617 730.588C508.121 730.588 508.121 727.059 508.121 727.059C508.121 723.529 504.617 723.529 504.617 723.529C501.112 723.529 501.112 727.059 501.112 727.059L504.617 730.588Z" fill="#0E1827"/>
<path d="M557.178 730.588C560.683 730.588 560.683 727.059 560.683 727.059C560.683 723.529 557.178 723.529 557.178 723.529C553.674 723.529 553.674 727.059 553.674 727.059C550.17 727.059 553.674 730.588 557.178 730.588Z" fill="#0E1827"/>
<path d="M606.239 734.117C613.248 734.117 616.752 730.588 616.752 723.529C616.752 716.47 613.248 712.941 606.239 712.941C599.231 712.941 595.727 716.47 595.727 723.529C595.727 730.588 599.231 734.117 606.239 734.117Z" fill="#0E1827"/>
<path d="M304.871 776.47C304.871 776.47 304.871 772.941 304.871 776.47C304.871 772.941 301.367 776.47 304.871 776.47C301.367 776.47 304.871 776.47 304.871 776.47Z" fill="#0E1827"/>
<path d="M504.614 779.999C508.118 779.999 511.623 776.47 511.623 772.941C511.623 769.411 508.118 765.882 504.614 765.882C501.11 765.882 497.605 769.411 497.605 772.941C497.605 779.999 501.11 779.999 504.614 779.999Z" fill="#0E1827"/>
<path d="M557.181 776.47C557.181 776.47 557.181 772.941 557.181 776.47C557.181 772.941 553.676 776.47 557.181 776.47C553.676 776.47 557.181 776.47 557.181 776.47Z" fill="#0E1827"/>
<path d="M606.241 776.47C606.241 776.47 609.745 776.47 606.241 776.47C609.745 772.941 606.241 772.941 606.241 772.941C606.241 772.941 606.241 772.941 606.241 776.47Z" fill="#0E1827"/>
</svg>
