<svg width="1076" height="1054" viewBox="0 0 1076 1054" fill="none" xmlns="http://www.w3.org/2000/svg">
<g opacity="0.15">
<path d="M1024.67 515.949C1028.77 515.949 1032.09 512.627 1032.03 508.534C1030.16 383.565 980.982 263.837 894.26 173.583C805.825 81.5452 685.205 27.2981 557.667 22.2048C430.129 17.1116 305.568 61.5673 210.074 146.26C114.58 230.953 55.5634 349.312 45.385 476.545C35.2066 603.778 74.6564 730.014 155.471 828.811C236.286 927.608 352.196 991.301 478.921 1006.55C605.647 1021.8 733.357 987.415 835.3 910.607C935.267 835.287 1002.85 724.9 1024.57 601.819C1025.28 597.787 1022.53 593.979 1018.48 593.328C1014.44 592.677 1010.64 595.43 1009.93 599.461C988.824 718.762 923.288 825.752 826.379 898.767C727.494 973.271 603.616 1006.62 480.692 991.83C357.768 977.04 245.336 915.258 166.945 819.425C88.5552 723.592 50.2888 601.143 60.1619 477.727C70.035 354.311 127.281 239.503 219.91 157.351C312.539 75.1987 433.364 32.0767 557.075 37.0172C680.787 41.9576 797.788 94.5773 883.571 183.854C967.64 271.347 1015.33 387.395 1017.21 508.534C1017.27 512.627 1020.58 515.949 1024.67 515.949Z" fill="url(#paint0_linear)"/>
<path d="M955.852 627.926C959.367 628.867 962.985 626.782 963.874 623.253C985.955 535.609 980.471 443.226 948.082 358.732C914.906 272.186 855.202 198.353 777.515 147.799C699.828 97.2459 608.14 72.564 515.573 77.2858C423.006 82.0077 334.305 115.891 262.165 174.087C190.025 232.283 138.144 311.809 113.947 401.282C89.7501 490.755 94.4771 585.589 127.452 672.212C160.427 758.836 219.959 832.807 297.528 883.541C373.258 933.072 462.391 957.974 552.722 954.934C556.358 954.812 559.163 951.717 558.986 948.082C558.809 944.448 555.718 941.65 552.081 941.771C464.527 944.677 378.144 920.522 304.741 872.513C229.499 823.302 171.752 751.549 139.767 667.524C107.781 583.5 103.196 491.51 126.667 404.722C150.139 317.933 200.463 240.793 270.439 184.343C340.414 127.893 426.454 95.0259 516.244 90.4457C606.034 85.8655 694.971 109.807 770.328 158.844C845.684 207.88 903.597 279.499 935.778 363.449C967.172 445.347 972.506 534.885 951.144 619.842C950.257 623.371 952.337 626.984 955.852 627.926Z" fill="url(#paint1_linear)"/>
<path d="M726.859 187.73C728.451 184.973 727.506 181.442 724.725 179.891C646.135 136.075 554.596 121.194 466.068 137.958C375.651 155.08 294.378 204.077 237.023 276.042C179.669 348.006 150.04 438.162 153.522 530.121C157.005 622.079 193.368 709.736 256.001 777.156C318.634 844.577 403.379 887.287 494.833 897.521C586.286 907.756 678.377 884.836 754.364 832.928C830.351 781.02 885.191 703.57 908.915 614.656C932.143 527.601 924.032 435.215 886.113 353.616C884.772 350.729 881.32 349.527 878.453 350.912C875.586 352.297 874.39 355.744 875.73 358.632C912.449 437.744 920.291 527.296 897.775 611.684C874.762 697.93 821.568 773.057 747.86 823.408C674.153 873.758 584.825 895.991 496.115 886.063C407.405 876.136 325.202 834.707 264.448 769.309C203.694 703.911 168.422 618.884 165.044 529.684C161.666 440.484 190.406 353.034 246.04 283.228C301.674 213.422 380.508 165.895 468.213 149.287C554.028 133.036 642.761 147.441 718.96 189.878C721.741 191.427 725.267 190.487 726.859 187.73Z" fill="url(#paint2_linear)"/>
<path d="M356.219 245.306C354.711 243.032 351.641 242.408 349.39 243.95C287.95 286.03 242.537 347.723 220.64 419.001C198.26 491.855 201.833 570.216 230.75 640.731C259.668 711.246 312.141 769.552 379.229 805.716C446.317 841.88 523.869 853.663 598.671 839.057C673.473 824.452 740.896 784.362 789.453 725.618C838.01 666.875 864.696 593.112 864.965 516.898C865.233 440.684 839.067 366.735 790.925 307.651C743.825 249.845 678.54 209.766 605.784 193.888C603.117 193.307 600.508 195.039 599.966 197.714C599.424 200.388 601.155 202.992 603.821 203.576C674.336 218.999 737.607 257.86 783.264 313.893C829.961 371.205 855.342 442.936 855.082 516.863C854.822 590.79 828.936 662.34 781.836 719.322C734.735 776.303 669.335 815.191 596.777 829.358C524.219 843.525 448.994 832.095 383.919 797.017C318.843 761.938 267.944 705.38 239.894 636.981C211.844 568.581 208.378 492.572 230.087 421.903C251.312 352.811 295.318 293.003 354.852 252.188C357.103 250.644 357.728 247.581 356.219 245.306Z" fill="url(#paint3_linear)"/>
<path d="M313.733 664.626C311.206 666.301 310.512 669.712 312.238 672.205C347.285 722.832 398.375 760.254 457.335 778.367C518.047 797.017 583.347 794.04 642.11 769.942C700.872 745.844 749.461 702.116 779.598 646.209C809.734 590.302 819.553 525.676 807.382 463.341C795.211 401.006 761.803 344.82 712.85 304.356C663.897 263.892 602.427 241.653 538.916 241.43C475.405 241.206 413.78 263.011 364.543 303.129C316.727 342.091 283.466 395.983 270.037 456.074C269.376 459.034 271.303 461.933 274.274 462.535C277.246 463.137 280.138 461.214 280.802 458.255C293.724 400.653 325.632 348.999 371.48 311.642C418.747 273.129 477.906 252.196 538.877 252.411C599.848 252.625 658.859 273.974 705.854 312.82C752.849 351.665 784.921 405.604 796.605 465.445C808.289 525.287 798.863 587.328 769.932 640.999C741.001 694.669 694.356 736.648 637.944 759.782C581.531 782.916 518.843 785.775 460.56 767.87C404.028 750.504 355.033 714.645 321.391 666.136C319.663 663.644 316.261 662.95 313.733 664.626Z" fill="url(#paint4_linear)"/>
<path d="M721.136 622.956C723.762 624.472 727.126 623.575 728.576 620.912C750.994 579.74 759.672 532.424 753.255 485.89C746.587 437.54 724.003 392.789 689.069 358.703C654.135 324.618 608.843 303.141 560.343 297.664C511.844 292.186 462.902 303.021 421.247 328.456C379.591 353.891 347.595 392.478 330.311 438.123C313.028 483.768 311.441 533.869 325.803 580.516C340.165 627.162 369.656 667.696 409.62 695.715C448.083 722.683 494.137 736.579 541.003 735.446C544.034 735.372 546.369 732.789 546.22 729.761C546.071 726.732 543.495 724.405 540.463 724.474C496.036 725.49 452.388 712.29 415.923 686.724C377.958 660.106 349.941 621.599 336.298 577.285C322.654 532.97 324.161 485.374 340.58 442.011C357 398.649 387.396 361.991 426.969 337.828C466.542 313.664 513.037 303.371 559.111 308.575C605.185 313.779 648.213 334.182 681.4 366.563C714.587 398.944 736.042 441.457 742.377 487.39C748.461 531.507 740.263 576.363 719.064 615.42C717.617 618.085 718.51 621.44 721.136 622.956Z" fill="url(#paint5_linear)"/>
<path d="M494.295 361.516C493.589 358.88 490.876 357.309 488.263 358.094C454.865 368.125 425.467 388.515 404.358 416.378C382.253 445.555 370.497 481.265 370.947 517.868C371.397 554.471 384.027 589.881 406.843 618.506C429.659 647.131 461.36 667.341 496.94 675.943C532.521 684.545 569.953 681.05 603.326 666.009C636.699 650.969 664.11 625.239 681.232 592.885C698.353 560.53 704.209 523.394 697.875 487.341C691.826 452.912 674.99 421.344 649.864 397.164C647.897 395.271 644.766 395.43 642.934 397.452C641.101 399.474 641.262 402.594 643.224 404.49C666.725 427.193 682.473 456.785 688.141 489.051C694.096 522.941 688.591 557.849 672.497 588.262C656.402 618.676 630.635 642.861 599.265 656.999C567.895 671.138 532.708 674.423 499.263 666.337C465.817 658.251 436.018 639.254 414.571 612.346C393.124 585.438 381.252 552.153 380.829 517.746C380.406 483.34 391.457 449.773 412.236 422.346C432.018 396.233 459.546 377.104 490.822 367.644C493.434 366.854 495.002 364.152 494.295 361.516Z" fill="url(#paint6_linear)"/>
</g>
<defs>
<linearGradient id="paint0_linear" x1="537.949" y1="21.8113" x2="537.949" y2="1010.09" gradientUnits="userSpaceOnUse">
<stop stop-color="white"/>
<stop offset="1" stop-color="white" stop-opacity="0.45"/>
</linearGradient>
<linearGradient id="paint1_linear" x1="651.631" y1="91.682" x2="424.267" y2="940.216" gradientUnits="userSpaceOnUse">
<stop stop-color="white"/>
<stop offset="1" stop-color="white" stop-opacity="0.45"/>
</linearGradient>
<linearGradient id="paint2_linear" x1="204.737" y1="323.412" x2="870.415" y2="707.741" gradientUnits="userSpaceOnUse">
<stop stop-color="white"/>
<stop offset="1" stop-color="white" stop-opacity="0.45"/>
</linearGradient>
<linearGradient id="paint3_linear" x1="206.117" y1="515.738" x2="864.967" y2="515.738" gradientUnits="userSpaceOnUse">
<stop stop-color="white"/>
<stop offset="1" stop-color="white" stop-opacity="0.45"/>
</linearGradient>
<linearGradient id="paint4_linear" x1="537.949" y1="790.47" x2="537.949" y2="241.428" gradientUnits="userSpaceOnUse">
<stop stop-color="white"/>
<stop offset="1" stop-color="white" stop-opacity="0.45"/>
</linearGradient>
<linearGradient id="paint5_linear" x1="747.83" y1="459.052" x2="323.563" y2="572.734" gradientUnits="userSpaceOnUse">
<stop stop-color="white"/>
<stop offset="1" stop-color="white" stop-opacity="0.45"/>
</linearGradient>
<linearGradient id="paint6_linear" x1="393.002" y1="433.487" x2="678.293" y2="598.2" gradientUnits="userSpaceOnUse">
<stop stop-color="white"/>
<stop offset="1" stop-color="white" stop-opacity="0.45"/>
</linearGradient>
</defs>
</svg>
