<svg width="47" height="20" viewBox="0 0 47 20" fill="none" xmlns="http://www.w3.org/2000/svg">
<path d="M0 6.10352e-05H40C41.6569 6.10352e-05 43 1.34321 43 3.00006V13.0001C43 14.6569 41.6569 16.0001 40 16.0001H3C1.34314 16.0001 0 14.6569 0 13.0001V6.10352e-05Z" fill="#F32B2B"/>
<path d="M47 0H40V10C40.9333 9.81482 44.55 8.44444 45.95 6.66667C47.35 4.88889 46.7667 1.2963 47 0Z" fill="#F32B2B"/>
<path d="M23 15C22.8821 16.3333 21.9385 19 19.1077 19C16.2769 19 5.18974 19 0 19" stroke="#F32B2B" stroke-width="2"/>
<path d="M18.7947 13.15C17.9947 13.15 17.3897 12.925 16.9797 12.475C16.5697 12.015 16.3647 11.36 16.3647 10.51V9.91H17.9247V10.63C17.9247 11.31 18.2097 11.65 18.7797 11.65C19.0597 11.65 19.2697 11.57 19.4097 11.41C19.5597 11.24 19.6347 10.97 19.6347 10.6C19.6347 10.16 19.5347 9.775 19.3347 9.445C19.1347 9.105 18.7647 8.7 18.2247 8.23C17.5447 7.63 17.0697 7.09 16.7997 6.61C16.5297 6.12 16.3947 5.57 16.3947 4.96C16.3947 4.13 16.6047 3.49 17.0247 3.04C17.4447 2.58 18.0547 2.35 18.8547 2.35C19.6447 2.35 20.2397 2.58 20.6397 3.04C21.0497 3.49 21.2547 4.14 21.2547 4.99V5.425H19.6947V4.885C19.6947 4.525 19.6247 4.265 19.4847 4.105C19.3447 3.935 19.1397 3.85 18.8697 3.85C18.3197 3.85 18.0447 4.185 18.0447 4.855C18.0447 5.235 18.1447 5.59 18.3447 5.92C18.5547 6.25 18.9297 6.65 19.4697 7.12C20.1597 7.72 20.6347 8.265 20.8947 8.755C21.1547 9.245 21.2847 9.82 21.2847 10.48C21.2847 11.34 21.0697 12 20.6397 12.46C20.2197 12.92 19.6047 13.15 18.7947 13.15ZM21.8407 2.5H23.4307L24.1657 10.57H24.1957L24.9757 2.5H26.7757L27.5557 10.57H27.5857L28.3207 2.5H29.7457L28.6807 13H26.6257L25.8757 5.92H25.8457L25.0957 13H22.9057L21.8407 2.5Z" fill="white"/>
</svg>
