<svg width="90" height="22" viewBox="0 0 90 22" fill="none" xmlns="http://www.w3.org/2000/svg">
<path d="M43 2.00008H83C84.6569 2.00008 86 3.34322 86 5.00008V15.0001C86 16.6569 84.6569 18.0001 83 18.0001H46C44.3431 18.0001 43 16.6569 43 15.0001V2.00008Z" fill="#F32B2B"/>
<path d="M90 2H83V12C83.9333 11.8148 87.55 10.4444 88.95 8.66667C90.35 6.88889 89.7667 3.2963 90 2Z" fill="#F32B2B"/>
<path d="M4.048 18.22C2.87467 18.22 1.98733 17.89 1.386 17.23C0.784667 16.5553 0.484 15.5947 0.484 14.348V13.468H2.772V14.524C2.772 15.5213 3.19 16.02 4.026 16.02C4.43667 16.02 4.74467 15.9027 4.95 15.668C5.17 15.4187 5.28 15.0227 5.28 14.48C5.28 13.8347 5.13333 13.27 4.84 12.786C4.54667 12.2873 4.004 11.6933 3.212 11.004C2.21467 10.124 1.518 9.332 1.122 8.628C0.726 7.90933 0.528 7.10267 0.528 6.208C0.528 4.99067 0.836 4.052 1.452 3.392C2.068 2.71733 2.96267 2.38 4.136 2.38C5.29467 2.38 6.16733 2.71733 6.754 3.392C7.35533 4.052 7.656 5.00533 7.656 6.252V6.89H5.368V6.098C5.368 5.57 5.26533 5.18867 5.06 4.954C4.85467 4.70467 4.554 4.58 4.158 4.58C3.35133 4.58 2.948 5.07133 2.948 6.054C2.948 6.61133 3.09467 7.132 3.388 7.616C3.696 8.1 4.246 8.68667 5.038 9.376C6.05 10.256 6.74667 11.0553 7.128 11.774C7.50933 12.4927 7.7 13.336 7.7 14.304C7.7 15.5653 7.38467 16.5333 6.754 17.208C6.138 17.8827 5.236 18.22 4.048 18.22ZM11.8375 2.6H18.4375V4.8H14.2575V8.87H17.5795V11.07H14.2575V15.8H18.4375V18H11.8375V2.6ZM22.5797 2.6H25.6157L27.9697 11.818H28.0137V2.6H30.1697V18H27.6837L24.7797 6.758H24.7357V18H22.5797V2.6ZM37.8644 18.22C36.6911 18.22 35.8037 17.89 35.2024 17.23C34.6011 16.5553 34.3004 15.5947 34.3004 14.348V13.468H36.5884V14.524C36.5884 15.5213 37.0064 16.02 37.8424 16.02C38.2531 16.02 38.5611 15.9027 38.7664 15.668C38.9864 15.4187 39.0964 15.0227 39.0964 14.48C39.0964 13.8347 38.9497 13.27 38.6564 12.786C38.3631 12.2873 37.8204 11.6933 37.0284 11.004C36.0311 10.124 35.3344 9.332 34.9384 8.628C34.5424 7.90933 34.3444 7.10267 34.3444 6.208C34.3444 4.99067 34.6524 4.052 35.2684 3.392C35.8844 2.71733 36.7791 2.38 37.9524 2.38C39.1111 2.38 39.9837 2.71733 40.5704 3.392C41.1717 4.052 41.4724 5.00533 41.4724 6.252V6.89H39.1844V6.098C39.1844 5.57 39.0817 5.18867 38.8764 4.954C38.6711 4.70467 38.3704 4.58 37.9744 4.58C37.1677 4.58 36.7644 5.07133 36.7644 6.054C36.7644 6.61133 36.9111 7.132 37.2044 7.616C37.5124 8.1 38.0624 8.68667 38.8544 9.376C39.8664 10.256 40.5631 11.0553 40.9444 11.774C41.3257 12.4927 41.5164 13.336 41.5164 14.304C41.5164 15.5653 41.2011 16.5333 40.5704 17.208C39.9544 17.8827 39.0524 18.22 37.8644 18.22Z" fill="white"/>
<path d="M46.2325 5.2H47.7165L48.4025 12.732H48.4305L49.1585 5.2H50.8385L51.5665 12.732H51.5945L52.2805 5.2H53.6105L52.6165 15H50.6985L49.9985 8.392H49.9705L49.2705 15H47.2265L46.2325 5.2ZM58.3654 15.14C57.6094 15.14 57.0308 14.9253 56.6294 14.496C56.2281 14.0667 56.0274 13.46 56.0274 12.676V7.524C56.0274 6.74 56.2281 6.13333 56.6294 5.704C57.0308 5.27467 57.6094 5.06 58.3654 5.06C59.1214 5.06 59.7001 5.27467 60.1014 5.704C60.5028 6.13333 60.7034 6.74 60.7034 7.524V12.676C60.7034 13.46 60.5028 14.0667 60.1014 14.496C59.7001 14.9253 59.1214 15.14 58.3654 15.14ZM58.3654 13.74C58.8974 13.74 59.1634 13.418 59.1634 12.774V7.426C59.1634 6.782 58.8974 6.46 58.3654 6.46C57.8334 6.46 57.5674 6.782 57.5674 7.426V12.774C57.5674 13.418 57.8334 13.74 58.3654 13.74ZM63.4949 5.2H65.7769C66.5702 5.2 67.1489 5.38667 67.5129 5.76C67.8769 6.124 68.0589 6.68867 68.0589 7.454V8.056C68.0589 9.07333 67.7229 9.71733 67.0509 9.988V10.016C67.4242 10.128 67.6856 10.3567 67.8349 10.702C67.9936 11.0473 68.0729 11.5093 68.0729 12.088V13.81C68.0729 14.09 68.0822 14.3187 68.1009 14.496C68.1196 14.664 68.1662 14.832 68.2409 15H66.6729C66.6169 14.8413 66.5796 14.692 66.5609 14.552C66.5422 14.412 66.5329 14.16 66.5329 13.796V12.004C66.5329 11.556 66.4582 11.2433 66.3089 11.066C66.1689 10.8887 65.9216 10.8 65.5669 10.8H65.0349V15H63.4949V5.2ZM65.5949 9.4C65.9029 9.4 66.1316 9.32067 66.2809 9.162C66.4396 9.00333 66.5189 8.73733 66.5189 8.364V7.608C66.5189 7.25333 66.4536 6.99667 66.3229 6.838C66.2016 6.67933 66.0056 6.6 65.7349 6.6H65.0349V9.4H65.5949ZM70.8914 5.2H72.4314V9.33L74.3914 5.2H75.9314L74.0974 8.798L75.9594 15H74.3494L73.0474 10.632L72.4314 11.878V15H70.8914V5.2ZM80.3446 15.14C79.5979 15.14 79.0332 14.93 78.6506 14.51C78.2679 14.0807 78.0766 13.4693 78.0766 12.676V12.116H79.5326V12.788C79.5326 13.4227 79.7986 13.74 80.3306 13.74C80.5919 13.74 80.7879 13.6653 80.9186 13.516C81.0586 13.3573 81.1286 13.1053 81.1286 12.76C81.1286 12.3493 81.0352 11.99 80.8486 11.682C80.6619 11.3647 80.3166 10.9867 79.8126 10.548C79.1779 9.988 78.7346 9.484 78.4826 9.036C78.2306 8.57867 78.1046 8.06533 78.1046 7.496C78.1046 6.72133 78.3006 6.124 78.6926 5.704C79.0846 5.27467 79.6539 5.06 80.4006 5.06C81.1379 5.06 81.6932 5.27467 82.0666 5.704C82.4492 6.124 82.6406 6.73067 82.6406 7.524V7.93H81.1846V7.426C81.1846 7.09 81.1192 6.84733 80.9886 6.698C80.8579 6.53933 80.6666 6.46 80.4146 6.46C79.9012 6.46 79.6446 6.77267 79.6446 7.398C79.6446 7.75267 79.7379 8.084 79.9246 8.392C80.1206 8.7 80.4706 9.07333 80.9746 9.512C81.6186 10.072 82.0619 10.5807 82.3046 11.038C82.5472 11.4953 82.6686 12.032 82.6686 12.648C82.6686 13.4507 82.4679 14.0667 82.0666 14.496C81.6746 14.9253 81.1006 15.14 80.3446 15.14Z" fill="white"/>
<path d="M66 15C65.6667 17 63 21 55 21C47 21 15.6667 21 1 21" stroke="#F32B2B" stroke-width="2"/>
</svg>
