<svg width="20" height="17" viewBox="0 0 20 17" fill="none" xmlns="http://www.w3.org/2000/svg">
<mask id="path-1-inside-1" fill="white">
<path d="M1.04993 9.17501L17.0093 9.17501L10.8982 14.9957C10.5782 15.3005 10.5658 15.8069 10.8706 16.1269C11.175 16.4465 11.6814 16.4593 12.0018 16.1545L18.9809 9.50661C19.2829 9.20421 19.4497 8.80262 19.4497 8.37502C19.4497 7.94783 19.2829 7.54583 18.9669 7.23024L12.0014 0.595918C11.8466 0.44832 11.6482 0.375121 11.4498 0.375121C11.2386 0.375121 11.0274 0.45832 10.8702 0.623517C10.5654 0.943514 10.5778 1.44951 10.8978 1.75431L17.0345 7.57503L1.04993 7.57503C0.608338 7.57503 0.249942 7.93343 0.249942 8.37502C0.249942 8.81662 0.608338 9.17501 1.04993 9.17501Z"/>
</mask>
<path d="M1.04993 9.17501L17.0093 9.17501L10.8982 14.9957C10.5782 15.3005 10.5658 15.8069 10.8706 16.1269C11.175 16.4465 11.6814 16.4593 12.0018 16.1545L18.9809 9.50661C19.2829 9.20421 19.4497 8.80262 19.4497 8.37502C19.4497 7.94783 19.2829 7.54583 18.9669 7.23024L12.0014 0.595918C11.8466 0.44832 11.6482 0.375121 11.4498 0.375121C11.2386 0.375121 11.0274 0.45832 10.8702 0.623517C10.5654 0.943514 10.5778 1.44951 10.8978 1.75431L17.0345 7.57503L1.04993 7.57503C0.608338 7.57503 0.249942 7.93343 0.249942 8.37502C0.249942 8.81662 0.608338 9.17501 1.04993 9.17501Z" fill="#94A3BE"/>
<path d="M17.0093 9.17501L22.5269 14.9678L37.0078 1.17502L17.0093 1.17501L17.0093 9.17501ZM10.8982 14.9957L5.38067 9.20293L5.38061 9.20298L10.8982 14.9957ZM10.8706 16.1269L16.6635 10.6095L16.6634 10.6093L10.8706 16.1269ZM12.0018 16.1545L17.5158 21.9507L17.5195 21.9472L12.0018 16.1545ZM18.9809 9.50661L24.4987 15.2992L24.571 15.2304L24.6415 15.1597L18.9809 9.50661ZM18.9669 7.23024L24.6202 1.5698L24.5531 1.50277L24.4844 1.43734L18.9669 7.23024ZM12.0014 0.595918L6.48079 6.38582L6.48394 6.38881L12.0014 0.595918ZM10.8702 0.623517L16.663 6.14112L16.6657 6.13831L10.8702 0.623517ZM10.8978 1.75431L5.38021 7.54706L5.38628 7.55285L5.39237 7.55862L10.8978 1.75431ZM17.0345 7.57503L17.0345 15.575L37.0937 15.575L22.54 1.77071L17.0345 7.57503ZM1.04993 17.175L17.0093 17.175L17.0093 1.17501L1.04993 1.17501L1.04993 17.175ZM11.4918 3.3822L5.38067 9.20293L16.4158 20.7886L22.5269 14.9678L11.4918 3.3822ZM5.38061 9.20298C1.86243 12.554 1.72475 18.1242 5.07785 21.6445L16.6634 10.6093C19.4069 13.4897 19.294 18.047 16.4158 20.7885L5.38061 9.20298ZM5.07768 21.6444C8.42783 25.1618 13.9954 25.2997 17.5158 21.9507L6.48781 10.3583C9.36739 7.61895 13.9222 7.73126 16.6635 10.6095L5.07768 21.6444ZM17.5195 21.9472L24.4987 15.2992L13.4632 3.71398L6.48406 10.3619L17.5195 21.9472ZM24.6415 15.1597C26.4364 13.3624 27.4497 10.9297 27.4497 8.37503L11.4497 8.37502C11.4497 6.67552 12.1294 5.04598 13.3203 3.8535L24.6415 15.1597ZM27.4497 8.37503C27.4497 5.77173 26.401 3.34839 24.6202 1.5698L13.3136 12.8907C12.1648 11.7433 11.4497 10.1239 11.4497 8.37502L27.4497 8.37503ZM24.4844 1.43734L17.5189 -5.19698L6.48394 6.38881L13.4495 13.0231L24.4844 1.43734ZM17.522 -5.19398C15.8199 -6.81688 13.6205 -7.62488 11.4498 -7.62488L11.4498 8.37512C9.67594 8.37512 7.87326 7.71352 6.4808 6.38582L17.522 -5.19398ZM11.4498 -7.62488C9.14236 -7.62488 6.80588 -6.71047 5.07477 -4.89127L16.6657 6.13831C15.2489 7.62711 13.3349 8.37512 11.4498 8.37512L11.4498 -7.62488ZM5.07745 -4.89409C1.72422 -1.37363 1.86216 4.19613 5.38021 7.54706L16.4154 -4.03845C19.2935 -1.29711 19.4066 3.26066 16.663 6.14112L5.07745 -4.89409ZM5.39237 7.55862L11.5291 13.3794L22.54 1.77071L16.4033 -4.05001L5.39237 7.55862ZM17.0345 -0.424965L1.04993 -0.424967L1.04993 15.575L17.0345 15.575L17.0345 -0.424965ZM1.04993 -0.424967C-3.80994 -0.424967 -7.75006 3.51515 -7.75006 8.37502L8.24994 8.37502C8.24994 12.3517 5.02662 15.575 1.04993 15.575L1.04993 -0.424967ZM-7.75006 8.37502C-7.75006 13.2349 -3.80994 17.175 1.04993 17.175L1.04993 1.17501C5.02662 1.17501 8.24994 4.39834 8.24994 8.37502L-7.75006 8.37502Z" fill="#F32B2B" mask="url(#path-1-inside-1)"/>
</svg>
