<svg width="44" height="44" viewBox="0 0 44 44" fill="none" xmlns="http://www.w3.org/2000/svg">
<path d="M37.5571 6.44286C33.5762 2.46191 28.0762 0 22 0C15.9238 0 10.4238 2.46191 6.44286 6.44286C2.46191 10.4238 0 15.9238 0 22C0 28.0762 2.46191 33.5762 6.44286 37.5571C10.4238 41.5381 15.9238 44 22 44C28.0762 44 33.5762 41.5381 37.5571 37.5571C41.5381 33.5762 44 28.0762 44 22C44 15.9238 41.5381 10.4238 37.5571 6.44286ZM35.6714 35.6714C32.1619 39.181 27.3429 41.3286 22 41.3286C16.6571 41.3286 11.8381 39.181 8.32857 35.6714C4.87143 32.1619 2.67143 27.3429 2.67143 22C2.67143 16.6571 4.81905 11.8381 8.32857 8.32857C11.8381 4.81905 16.6571 2.67143 22 2.67143C27.3429 2.67143 32.1619 4.81905 35.6714 8.32857C39.181 11.8381 41.3286 16.6571 41.3286 22C41.3286 27.3429 39.1286 32.1619 35.6714 35.6714Z" fill="#94A3BE"/>
<path d="M34.2047 20.4286C34.1 20.3238 33.9428 20.1143 33.7857 19.9048C33.7333 19.8524 33.7333 19.8524 33.6809 19.8C33.5238 19.6429 33.3666 19.5381 33.1571 19.4334L25.4047 14.981C25.4047 14.981 25.3524 14.981 25.3524 14.9286L17.5476 10.4238C16.8666 10.0048 16.0809 9.95241 15.3476 10.1096C14.6142 10.3191 13.9857 10.7905 13.5666 11.4715C13.4095 11.681 13.3571 11.9429 13.2523 12.1524C13.2 12.3096 13.2 12.5191 13.1476 12.7286C13.1476 12.781 13.1476 12.8857 13.1476 12.9381V22V31.0095C13.1476 31.7952 13.4619 32.5286 13.9857 33.0524C14.5095 33.5762 15.2428 33.8905 16.0285 33.8905C16.2904 33.8905 16.6047 33.8381 16.8666 33.7333C17.1285 33.6286 17.3904 33.5238 17.6 33.3667L25.3 28.9143L25.4047 28.8619L33.1571 24.4095C33.2095 24.4095 33.2095 24.3572 33.2619 24.3572C33.8905 23.9381 34.3619 23.3095 34.519 22.6286C34.7285 21.8953 34.6238 21.1095 34.2047 20.4286ZM31.9524 22.0524C31.9524 22.1048 31.9 22.1572 31.8476 22.1572H31.7952L24.0952 26.6619L24.0428 26.7143L16.3428 31.1667C16.2904 31.1667 16.2904 31.2191 16.2381 31.2191C16.2381 31.2191 16.1857 31.2191 16.1857 31.2714H16.1333C16.0809 31.2714 16.0285 31.2191 15.9762 31.2191C15.9238 31.1667 15.9238 31.1143 15.9238 31.0619V22V12.9905V12.9381V12.8857C15.9762 12.8334 16.0285 12.781 16.0809 12.781C16.1333 12.781 16.1857 12.781 16.2381 12.781L23.9904 17.2334L24.0428 17.2857L31.8476 21.7905L31.9 21.8429L31.9524 21.8953C31.9524 21.9476 31.9524 22 31.9524 22.0524Z" fill="#94A3BE"/>
</svg>
