<svg width="20" height="16" viewBox="0 0 20 16" fill="none" xmlns="http://www.w3.org/2000/svg">
<path d="M18.3998 7.20011H2.44037L8.5515 1.37938C8.87149 1.07458 8.88389 0.568188 8.57909 0.248192C8.2747 -0.0714041 7.76831 -0.084204 7.44791 0.220592L0.468794 6.86851C0.166798 7.17091 0 7.5725 0 8.0001C0 8.42729 0.166798 8.82929 0.482794 9.14488L7.44831 15.7792C7.60311 15.9268 7.8015 16 7.9999 16C8.2111 16 8.4223 15.9168 8.5795 15.7516C8.88429 15.4316 8.87189 14.9256 8.5519 14.6208L2.41517 8.80009H18.3998C18.8414 8.80009 19.1998 8.44169 19.1998 8.0001C19.1998 7.5585 18.8414 7.20011 18.3998 7.20011Z" fill="#94A3BE"/>
</svg>
